<svg xmlns="http://www.w3.org/2000/svg" width="124.789" height="124.778" viewBox="0 0 124.789 124.778">
  <g id="Raggruppa_347" data-name="Raggruppa 347" transform="translate(11318.325 -564.818)">
    <path id="Tracciato_1017" data-name="Tracciato 1017" d="M102.969,95.795h11.507c2.615.008,3.236.559,3.305,3.22a31.973,31.973,0,0,0,3.887,14.409,32.8,32.8,0,0,0,60.98-9.071,39.146,39.146,0,0,0,.605-5.8c.1-2.142.791-2.755,2.917-2.755q11.918-.012,23.829,0c2.3,0,2.855.566,2.871,2.879.016,1.513-.062,3.026.023,4.539a2.678,2.678,0,0,1-2,2.933c-2.227.823-4.43,1.73-6.665,2.53a3.024,3.024,0,0,0-2.11,2.382A47.877,47.877,0,0,1,196.3,125.07a2.876,2.876,0,0,0-.186,3.034c1.055,2.188,1.955,4.446,3,6.642a2.773,2.773,0,0,1-.644,3.515q-3.806,3.759-7.565,7.565a2.781,2.781,0,0,1-3.515.636c-2.242-1.063-4.547-2.01-6.789-3.065a2.622,2.622,0,0,0-2.739.186,48.4,48.4,0,0,1-14.308,5.928,2.765,2.765,0,0,0-2.157,1.924c-.838,2.281-1.754,4.531-2.592,6.813a2.746,2.746,0,0,1-2.941,2c-3.616-.07-7.239-.062-10.855-.008a2.565,2.565,0,0,1-2.723-1.823c-.869-2.273-1.777-4.524-2.6-6.813a3,3,0,0,0-2.359-2.134,47.086,47.086,0,0,1-14.005-5.812,2.986,2.986,0,0,0-3.181-.132c-2.188,1.048-4.446,1.955-6.65,2.98a2.626,2.626,0,0,1-3.251-.559q-3.887-3.9-7.79-7.79a2.61,2.61,0,0,1-.621-3.236c1.063-2.3,2.041-4.648,3.112-6.952a2.623,2.623,0,0,0-.14-2.731,48.507,48.507,0,0,1-5.982-14.463,2.653,2.653,0,0,0-1.862-2.017c-2.281-.846-4.531-1.754-6.813-2.6a2.662,2.662,0,0,1-2.025-2.91c.078-1.567,0-3.135.023-4.7.016-2.165.605-2.739,2.832-2.747,4-.016,8-.008,12-.008m-.147,4.12c-2.917,0-5.835-.023-8.752.016-.675.008-1.614-.372-1.8.815a1.744,1.744,0,0,0,1.35,2.188c2.351.8,4.64,1.769,6.96,2.661a2.731,2.731,0,0,1,1.893,2.041,48.952,48.952,0,0,0,7.053,17.132,2.8,2.8,0,0,1,.2,2.91c-1.017,2.211-1.94,4.462-2.964,6.665a1.787,1.787,0,0,0,.4,2.421c1.552,1.428,3.034,2.933,4.469,4.469a1.705,1.705,0,0,0,2.281.411c2.1-.985,4.275-1.831,6.355-2.855a3.538,3.538,0,0,1,3.794.3,47.127,47.127,0,0,0,16.4,6.719,2.979,2.979,0,0,1,2.328,2.017c.877,2.328,1.823,4.625,2.661,6.96a1.707,1.707,0,0,0,1.9,1.335q3.154-.093,6.324,0a1.7,1.7,0,0,0,1.885-1.35c.838-2.336,1.785-4.632,2.669-6.952a2.851,2.851,0,0,1,2.173-1.971,47.618,47.618,0,0,0,16.838-6.921,3.185,3.185,0,0,1,3.352-.194c2.2,1.04,4.454,1.955,6.665,2.964a1.541,1.541,0,0,0,2.01-.365c1.529-1.606,3.1-3.174,4.7-4.7a1.535,1.535,0,0,0,.388-2.01c-.931-2-1.73-4.081-2.731-6.052a4.227,4.227,0,0,1,.341-4.671,45.119,45.119,0,0,0,6.448-15.813,3.192,3.192,0,0,1,2.18-2.568c2.328-.861,4.617-1.831,6.968-2.646,1.141-.4,1.3-1.156,1.172-2.149-.14-1.071-1.009-.791-1.645-.8-5.734-.016-11.46-.008-17.187-.008-2.312,0-2.312,0-2.6,2.367a36.235,36.235,0,0,1-6.983,17.559c-13.385,18.04-39.6,20.29-55.486,4.749A36.222,36.222,0,0,1,113.716,102.1c-.186-1.645-.691-2.328-2.467-2.227-2.8.155-5.618.039-8.427.039" transform="translate(-11406.437 529.345)" fill="#fff"/>
    <path id="Tracciato_1018" data-name="Tracciato 1018" d="M135.766,95.733c-.776-.667-1.6-1.3-2.312-2.025a2,2,0,0,1-.109-3.034,1.97,1.97,0,0,1,3.034.016c2.056,1.986,4.074,4.019,6.076,6.068a2.059,2.059,0,0,1-.008,3.166q-3,3.084-6.083,6.075a1.923,1.923,0,0,1-3,.039,2.063,2.063,0,0,1,.062-3.057c.629-.706,1.3-1.366,2.064-2.157-7.061-.706-8.9-.326-12.609,4.516-2.723,3.546-3.088,6.316-.147,9.986,2.522,3.15,5,5.455,9.265,5,1.063-.109,2.142-.016,3.453-.016a8.371,8.371,0,0,0-1.839-2.211c-1.047-1.211-1.148-2.413-.256-3.321.908-.923,2.079-.838,3.267.326q2.84,2.77,5.618,5.61c1.265,1.3,1.327,2.211.093,3.515-1.893,1.994-3.864,3.918-5.843,5.843a2.069,2.069,0,0,1-3.049.194,2.143,2.143,0,0,1,0-3.181c.613-.729,1.3-1.4,2.266-2.429-1.637,0-2.863-.07-4.074.016-5.463.38-9.272-2.242-12.128-6.626-.209-.318-.4-.636-.605-.962-1.948-3.15-1.653-2.848-3.484.078-2.289,3.655-5.02,6.665-9.552,7.348a35.332,35.332,0,0,1-6.471.1,2.111,2.111,0,1,1-.093-4.221,22.435,22.435,0,0,1,3.887-.062c3.336.272,5.711-1.273,7.526-3.872,1.179-1.684,2.235-3.445,3.367-5.16a1.287,1.287,0,0,0,.085-1.629c-1.428-2.095-2.638-4.345-4.268-6.3a7.165,7.165,0,0,0-5.92-2.817c-1.567.031-3.135-.031-4.694-.14a2.07,2.07,0,1,1,.155-4.136c2.048-.008,4.112-.116,6.153.054a10.767,10.767,0,0,1,7.666,4.384c1.172,1.474,2.18,3.08,3.22,4.656.5.745.869.861,1.373.023.675-1.11,1.381-2.2,2.134-3.259,2.731-3.849,6.231-6.231,11.189-5.889,1.443.1,2.894.016,4.337.016l.256-.52" transform="translate(-11344.982 489.975)" fill="#fff"/>
    <path id="Tracciato_1019" data-name="Tracciato 1019" d="M94.382,115.573q0-12.244.008-24.48c0-2.537.52-3.057,3.011-3.065,2.972-.008,5.944-.016,8.915,0,2.048.016,2.747.66,2.778,2.708.047,3.08.016,6.161.016,9.241v38.9c0,.59.023,1.187-.016,1.777-.132,1.878-.892,2.638-2.762,2.654q-4.621.058-9.241.008c-2-.023-2.693-.745-2.7-2.786q-.012-12.477-.008-24.961m4.128-.21V134.8c0,4.2,0,4.2,4.159,4.182,2.1-.016,2.111-.016,2.111-2.188V96.633c0-4.539,0-4.477-4.485-4.524-1.466-.016-1.823.5-1.808,1.878.054,7.123.023,14.254.023,21.377" transform="translate(-11364.05 476.8)" fill="#fff"/>
    <path id="Tracciato_1020" data-name="Tracciato 1020" d="M91.878,110.265q0-8.659,0-17.319c.008-2.3.652-3,2.964-3.042,2.917-.047,5.827-.047,8.745,0,2.165.031,2.987.807,2.995,2.933q.035,17.482,0,34.971c-.008,2.266-.8,2.995-3.057,3.011-2.972.023-5.936.023-8.908,0-2.025-.023-2.723-.722-2.731-2.739-.016-5.936-.008-11.872-.008-17.815m10.39.233V98.509c0-4.322,0-4.268-4.361-4.322-1.459-.016-1.955.38-1.94,1.909C96.029,104.732,96,113.368,96,122c0,4.547,0,4.508,4.516,4.5,1.311-.008,1.8-.4,1.777-1.754-.062-4.749-.023-9.505-.023-14.254" transform="translate(-11380.998 489.308)" fill="#fff"/>
    <path id="Tracciato_1021" data-name="Tracciato 1021" d="M104.082,105.477c0,3.507.023,7.014-.008,10.521-.016,2.553-.737,3.236-3.313,3.243-2.855.016-5.719.023-8.574,0-2.134-.016-2.809-.7-2.809-2.832q-.023-11.01,0-22.013c0-2.017.7-2.755,2.716-2.786,3.018-.039,6.044-.039,9.063,0,2.1.031,2.894.846,2.917,3.018.031,3.616.008,7.232.008,10.847M99.76,105.4c0-2.638-.031-5.284.016-7.922.023-1.086-.31-1.614-1.466-1.544a26.482,26.482,0,0,1-3.236,0c-1.187-.078-1.614.372-1.6,1.575q.07,7.926,0,15.852c-.016,1.249.489,1.622,1.637,1.552a25.245,25.245,0,0,1,3.065,0c1.187.078,1.629-.38,1.606-1.591-.07-2.638-.023-5.284-.023-7.922" transform="translate(-11397.951 500.885)" fill="#fff"/>
  </g>
</svg>
