<svg xmlns="http://www.w3.org/2000/svg" width="133.41" height="121.599" viewBox="0 0 133.41 121.599">
  <g id="Raggruppa_350" data-name="Raggruppa 350" transform="translate(11718.646 -564.548)">
    <path id="Tracciato_1009" data-name="Tracciato 1009" d="M169.913,93.253a4.912,4.912,0,0,0-5.2-5.245q-17.074-.047-34.148,0a5.014,5.014,0,0,0-5.253,5.237c-.039,3.065-.016,6.122-.016,9.187,0,2.646,0,2.646-2.669,2.646H43.748c-.807,0-1.622-.023-2.421.054a5.082,5.082,0,0,0-4.787,5.2c-.031,2.7-.023,17.047-.008,22.106v57.6c0,4.089,1.94,6.013,6.068,6.013q14.56.012,29.128,0c3.119.008,6.238.047,9.358-.016,1.381-.023,1.73.458,1.389,1.769-.5,1.893-.916,3.818-1.288,5.742a1.822,1.822,0,0,1-2.126,1.707c-3.639-.07-7.278-.031-10.925-.023-2.367.008-3.468.714-3.445,2.2.023,1.474,1.1,2.142,3.507,2.142h49.411a8.495,8.495,0,0,0,1.723-.085,1.951,1.951,0,0,0,1.746-2.048,2,2,0,0,0-1.691-2.1,7.944,7.944,0,0,0-1.723-.1c-3.639-.016-7.278-.039-10.925.008-1.172.016-1.808-.341-2.041-1.56-.365-1.862-.861-3.709-1.3-5.563-.466-1.986-.411-2.064,1.6-2.064q18.808-.012,37.617-.008c5.012,0,6.8-1.777,6.8-6.766q.012-32.414,0-64.828a4.482,4.482,0,0,1,4.787-4.818c3.352-.016,6.7.047,10.056-.023,3.74-.078,5.649-2.048,5.656-5.734q.012-10.312-.008-20.632M98.9,205.242c-2.017-.039-4.035-.016-6.052-.016-2.079,0-4.159-.016-6.231.008-.985.016-1.373-.334-1.117-1.366q.791-3.177,1.482-6.394a1.562,1.562,0,0,1,1.792-1.428c2.832.047,5.656.039,8.481,0a1.383,1.383,0,0,1,1.567,1.234q.71,3.212,1.443,6.409c.272,1.179-.241,1.567-1.366,1.552m46.191-26.482c0,1.428-.435,1.948-1.885,1.917q-4.76-.1-9.528.023c-1.653.039-2.553.978-2.452,2.312.109,1.56,1.148,1.979,2.53,1.971,2.421-.016,4.85-.023,7.278.008,4.624.047,3.988-.621,4.027,4.058.023,2.638-.023,2.661-2.755,2.661H93.073q-24.092,0-48.193,0c-4.392-.008-4.074.5-4.081-4.12,0-2.6.008-2.607,2.553-2.607h78.88c.636,0,1.273.008,1.9-.023a1.916,1.916,0,0,0,2.064-1.9,1.962,1.962,0,0,0-1.723-2.235,11.875,11.875,0,0,0-2.405-.163q-39.269-.012-78.531-.008c-2.731,0-2.739-.008-2.739-2.8v-45.3c.023-4.578,0-18.188,0-20.306.008-2.832.047-2.871,2.949-2.871h76.972c4.531,0,4.57,0,4.562,4.508a5.165,5.165,0,0,0,2.855,5.121,6.617,6.617,0,0,0,3.383.613c1.366-.062,1.839.5,1.785,1.847-.078,1.963-.008,3.926-.023,5.9-.016,1.451.186,2.8,1.668,3.523,1.505.737,2.786.186,4-.76,1.5-1.179,3.011-2.343,4.547-3.476.388-.287.753-.923,1.3-.644.528.279.272.954.272,1.443q.012,25.664.031,51.312m20.577-65.628c.016,1.474-.489,2.087-2.01,2.056-3.29-.07-6.58-.016-9.878-.023a6.682,6.682,0,0,0-4.337,1.428c-3.4,2.685-6.867,5.276-10.312,7.907-.357.272-.714.784-1.172.6-.605-.248-.326-.916-.334-1.4-.039-1.273-.008-2.545-.023-3.81-.039-3.2-1.164-4.423-4.291-4.694-3.662-.31-3.67-.31-3.662-4.035,0-5.548.047-11.088-.031-16.636-.023-1.645.5-2.242,2.188-2.211,5.307.078,10.622.023,15.937.023,5.261,0,10.522.047,15.775-.023,1.56-.016,2.165.512,2.149,2.1q-.081,9.358,0,18.715" transform="translate(-11755.165 476.564)" fill="#fff"/>
    <path id="Tracciato_1010" data-name="Tracciato 1010" d="M104.7,135.164a6.857,6.857,0,0,0-.008-.691c-.093-1.373.535-3-.31-4.05-.861-1.063-2.506-.31-3.8-.45-1.87-.2-2.723-1.428-2.048-3.305a27.4,27.4,0,0,0,1.327-5.191,22.584,22.584,0,1,0-43.646,4.431c1.032,3.042.3,4.058-2.91,4.066-1.676.008-3.352.016-5.028-.008a9.354,9.354,0,0,1-1.917-18.537,7.466,7.466,0,0,1,2.568-.272c2,.272,2.778-.675,3.453-2.436a26.815,26.815,0,0,1,49.977-.652c.83,2.111,1.676,3.158,4.237,3.166a9.373,9.373,0,0,1,3.872,18,2.014,2.014,0,0,0-1.435,2.188c-.031,3.057.334,6.138-.21,9.164a10.106,10.106,0,0,1-9.994,8.644c-1.668.062-3.352.054-5.02.016a2.169,2.169,0,0,0-2.25,1.218,6.608,6.608,0,0,1-5.307,3.453,15.837,15.837,0,0,1-7.03-.365,6.781,6.781,0,0,1-4.64-7.6,6.968,6.968,0,0,1,6.619-5.8c1.389-.047,2.77-.008,4.159-.016a6.835,6.835,0,0,1,6.277,3.624,1.988,1.988,0,0,0,2.025,1.218c1.552-.062,3.119.016,4.679-.023a6.093,6.093,0,0,0,6.355-6.332c.023-1.156,0-2.312,0-3.468ZM50.594,119.638v-2.755a1.036,1.036,0,0,0-.753-1.179,5.439,5.439,0,0,0-6.471,3.321,5.065,5.065,0,0,0,3.057,6.332,11.458,11.458,0,0,0,3.6.264c1.11.039,1.451-.528,1.172-1.529a16.146,16.146,0,0,1-.605-4.454m55.432,5.975c3.631-.008,5.982-2.041,5.882-5.09-.093-3.065-2.53-5.044-5.913-4.888-1.094.054-1.567.458-1.536,1.567a25.555,25.555,0,0,1-.714,7.2c-.217.861.062,1.21.9,1.21.458.008.923,0,1.381,0M83.4,149.526a22.738,22.738,0,0,0,2.413-.016A2.477,2.477,0,0,0,86,144.6a25.015,25.015,0,0,0-5-.008,2.213,2.213,0,0,0-2.079,2.522,2.277,2.277,0,0,0,2.235,2.4c.745.07,1.5.016,2.242.016" transform="translate(-11739.758 498.984)" fill="#fff"/>
    <path id="Tracciato_1011" data-name="Tracciato 1011" d="M59.3,92.5a17.749,17.749,0,0,1-.008,35.5A17.749,17.749,0,1,1,59.3,92.5m-.078,15.573c.636,0,1.265.008,1.9,0,.706,0,1.117-.357,1.024-1.071-.4-3.018-.7-6.068-2.041-8.869-.186-.388-.357-.939-.916-.9-.45.023-.6.5-.76.854a23.7,23.7,0,0,0-1.948,8.706c-.054.854.295,1.311,1.187,1.288.512-.016,1.032,0,1.552-.008m.233,4.368v-.008a7.738,7.738,0,0,1-1.04-.008c-1.707-.233-2.118.613-1.9,2.134a27.759,27.759,0,0,0,1.653,7.224c.241.559.4,1.373,1.148,1.35.629-.023.768-.784,1-1.3,1.148-2.568,1.389-5.346,1.808-8.077.132-.846-.194-1.335-1.117-1.319-.512.008-1.032,0-1.552,0M64.977,98.4a49.779,49.779,0,0,1,1.49,8.52,2.608,2.608,0,0,0,.054.341c.116.636.574.807,1.133.807,1.265.008,2.53,0,3.794.016.667,0,.885-.256.822-.954C72,103.96,68.344,99.452,64.977,98.4m-11.522.047c-3.166.908-6.929,5.517-7.2,8.613-.039.435-.07.9.45.939,1.606.124,3.313.442,4.8-.124,1.187-.458.473-1.963.7-2.987.186-.838.3-1.7.473-2.545.248-1.272.512-2.545.784-3.9m.093,23.867c-.442-2.173-.892-4.12-1.226-6.091-.675-4.035-.644-4.043-4.811-3.794l-.171.008c-.954-.047-1.218.372-.978,1.28a13.133,13.133,0,0,0,7.185,8.6m11.344.047c3.9-2.079,6.277-4.865,7.294-8.768.1-.419.326-1.063-.38-1.094-1.544-.07-3.1-.031-4.656.039-.551.031-.652.6-.683,1.071a55.2,55.2,0,0,1-1.575,8.752" transform="translate(-11721.513 507.089)" fill="#fff"/>
    <path id="Tracciato_1012" data-name="Tracciato 1012" d="M51.538,94a2.043,2.043,0,0,1-2.118-2.048,2.112,2.112,0,0,1,2.157-2.211A2.164,2.164,0,0,1,53.9,91.808,2.19,2.19,0,0,1,51.538,94" transform="translate(-11668.021 488.453)" fill="#fff"/>
    <path id="Tracciato_1013" data-name="Tracciato 1013" d="M52.89,89.738c1.3.248,2.2.931,2.134,2.3a2.243,2.243,0,0,1-4.469-.241c.07-1.4,1.094-1.9,2.336-2.064" transform="translate(-11660.31 488.42)" fill="#fff"/>
    <path id="Tracciato_1014" data-name="Tracciato 1014" d="M53.973,89.74a2.217,2.217,0,0,1,2.219,2.072,2.126,2.126,0,0,1-2.165,2.2A2.07,2.07,0,0,1,51.7,91.982a2.195,2.195,0,0,1,2.273-2.242" transform="translate(-11652.625 488.433)" fill="#fff"/>
  </g>
</svg>
