<svg xmlns="http://www.w3.org/2000/svg" width="107.005" height="107.426" viewBox="0 0 107.005 107.426">
  <g id="Raggruppa_351" data-name="Raggruppa 351" transform="translate(11918.491 -573.494)">
    <path id="Tracciato_1004" data-name="Tracciato 1004" d="M117.635,110.274c1,10.071-7.332,18.552-15.743,20.461a21.882,21.882,0,0,1-8.551.178,2.978,2.978,0,0,0-2.956.954q-4.842,4.981-9.831,9.831c-.916.892-.9,1.482.093,2.18a3.517,3.517,0,0,1,.621.559c.675.745,1.335.939,2.01.008a1.319,1.319,0,0,1,.31-.279,2.384,2.384,0,0,1,3.065.1,1.974,1.974,0,0,1,.039,2.98c-.993,1.032-.683,1.583.233,2.413q12.954,11.8,25.838,23.666c.582.528,1.179,1.055,1.707,1.629a10.766,10.766,0,0,1,3.29,7.984c-.1,2.654-.023,5.23-1.567,7.612a12.711,12.711,0,0,1-20.221,1.8c-6.657-7.162-13.237-14.393-19.856-21.594-1.761-1.917-3.538-3.8-5.276-5.726-.559-.613-.962-.807-1.692-.147-1.319,1.187-2.475,1.172-3.43.163-.869-.916-.861-2.149.318-3.329,1.047-1.047.279-1.606-.334-2.281-1.342-1.49-1.342-1.49-2.731-.1-3.212,3.212-6.409,6.44-9.652,9.621a2.563,2.563,0,0,0-.83,2.576,20.938,20.938,0,0,1-15.759,24.411,19.805,19.805,0,0,1-10.716-.248c-2.8-.854-3.228-2.553-1.141-4.64,2.289-2.3,4.6-4.578,6.9-6.875a4.829,4.829,0,0,0-.023-6.254c-.745-.753-1.56-1.459-2.25-2.273a3.834,3.834,0,0,0-3.049-1.265,4.621,4.621,0,0,0-4,1.692c-2.025,2.227-4.174,4.345-6.308,6.471-1.917,1.909-3.779,1.412-4.531-1.172a21.12,21.12,0,0,1,16.162-26.637,20.02,20.02,0,0,1,8.008.031,2.463,2.463,0,0,0,2.483-.753q6.494-6.588,13.082-13.082c.861-.846.729-1.327-.054-2.111q-11.779-11.72-23.487-23.518a3.036,3.036,0,0,0-2.328-.954c-5.54-.016-4.5.566-7.364-4.167q-3.34-5.528-6.65-11.088c-1-1.668-.923-2.483.4-3.833q2.537-2.572,5.113-5.113a2.482,2.482,0,0,1,3.507-.466c4.656,2.77,9.3,5.579,13.951,8.365a2.6,2.6,0,0,1,1.482,2.754c-.559,3.321.939,5.556,3.274,7.806,7.17,6.913,14.145,14.036,21.144,21.128.877.885,1.366.854,2.211-.016,4.384-4.462,8.822-8.869,13.261-13.284a1.818,1.818,0,0,0,.628-1.94,21.034,21.034,0,0,1,9.474-22.191,20.757,20.757,0,0,1,17.1-2.281c2.545.722,2.949,2.522,1.079,4.454-2.281,2.374-4.6,4.7-6.9,7.061a4.96,4.96,0,0,0-.078,6.06,26.4,26.4,0,0,1,1.785,1.948,4.306,4.306,0,0,0,4.1,1.73,3.934,3.934,0,0,0,2.925-1.249c2.242-2.343,4.547-4.632,6.844-6.921,1.885-1.878,3.639-1.435,4.454,1.11a6.632,6.632,0,0,1,.4,1.614c.054,1.474.016,2.956.016,4.438M15.368,176.414l.411.225c.815-.877,1.614-1.777,2.452-2.63,4.206-4.237,4.206-4.213,10.211-4.159a3.748,3.748,0,0,1,2.848,1.172c1.622,1.66,3.282,3.274,4.9,4.927,1.567,1.591,1.932,7.837.574,9.606a11.8,11.8,0,0,1-.854.908c-1.474,1.474-2.964,2.941-4.423,4.43-.241.233-.722.435-.512.869.155.295.582.264.9.24a20.017,20.017,0,0,0,5.323-.892,16.431,16.431,0,0,0,10.6-19.685,4.352,4.352,0,0,1,1.319-4.694Q68.9,147.084,88.546,127.313a3.743,3.743,0,0,1,4.074-1.172,16.5,16.5,0,0,0,20.919-15.5c.008-.45.209-1.032-.318-1.234-.45-.179-.683.38-.962.659-1.451,1.435-2.871,2.9-4.314,4.337-1.49,1.482-7.837,2.08-9.59.908a3.484,3.484,0,0,1-.644-.528c-1.707-1.761-3.43-3.515-5.106-5.315-1.451-1.56-1.358-8.295.1-9.854.163-.171.326-.334.489-.5C94.3,98,95.444,96.9,96.507,95.741c.535-.582,1.738-1.1,1.4-1.816s-1.529-.2-2.336-.14a16.428,16.428,0,0,0-14.424,20.9,3.353,3.353,0,0,1-.931,3.74q-20.158,20.135-40.263,40.332a3.091,3.091,0,0,1-3.274.869c-6.626-1.761-12.4-.233-17.109,4.772a15.508,15.508,0,0,0-4.2,12.019m98.1,7.286a7.69,7.69,0,0,0-2.817-6.122q-13.664-12.535-27.3-25.093c-.706-.652-1.125-.683-1.8.016-2.421,2.5-4.865,4.966-7.371,7.371-.83.792-.815,1.273-.039,2.1,5.858,6.316,11.67,12.671,17.5,19.01,2.6,2.832,5.168,5.688,7.837,8.458a8.105,8.105,0,0,0,9.063,1.909,7.986,7.986,0,0,0,4.927-7.651M58,134.017a2.6,2.6,0,0,0-.939-1.257c-7.55-7.573-15.037-15.208-22.7-22.665-2.126-2.072-3.422-4.167-2.972-7.154a2.036,2.036,0,0,0-1.28-2.211c-2.646-1.521-5.245-3.135-7.86-4.71-3.034-1.816-3.011-1.792-5.5.7a1.378,1.378,0,0,0-.233,2.025c1.847,3,3.709,5.982,5.385,9.07.846,1.552,1.862,2.273,3.608,2,2.258-.341,3.911.6,5.5,2.219,7.744,7.9,15.588,15.7,23.417,23.526.38.388.753,1.2,1.443.714A6.9,6.9,0,0,0,58,134.017M76.356,146.23c-.52.093-.76.473-1.048.753-2.033,2.017-4.074,4.027-6.075,6.083-1.878,1.94-1.979,1.2-.062,3.515.644.776,1.148.838,1.9.07,2.242-2.335,4.57-4.586,6.836-6.89.38-.4,1.265-.753.861-1.373a7.316,7.316,0,0,0-2.413-2.157" transform="translate(-11929.254 484.357)" fill="#fff"/>
    <path id="Tracciato_1005" data-name="Tracciato 1005" d="M46.307,96.257a2.928,2.928,0,0,1-.985,1.932Q32.6,110.922,19.879,123.631c-1.148,1.148-2.53,1.265-3.461.4-1-.931-.962-2.328.241-3.569,2.817-2.879,5.68-5.711,8.527-8.558q8.205-8.205,16.4-16.411a4.989,4.989,0,0,1,1.513-1.21,2.263,2.263,0,0,1,3.2,1.971" transform="translate(-11895.822 517.85)" fill="#fff"/>
    <path id="Tracciato_1006" data-name="Tracciato 1006" d="M24.322,95.55a2.243,2.243,0,0,1-4.485-.023,2.243,2.243,0,0,1,4.485.023" transform="translate(-11867.917 512.651)" fill="#fff"/>
    <path id="Tracciato_1007" data-name="Tracciato 1007" d="M19.292,100.479a2.172,2.172,0,1,1-4.337-.179,2.171,2.171,0,0,1,4.337.179" transform="translate(-11900.932 545.758)" fill="#fff"/>
    <path id="Tracciato_1008" data-name="Tracciato 1008" d="M43.3,119.36a2.13,2.13,0,0,1-3.166,2.033,6.451,6.451,0,0,1-1.505-1.211q-8.566-8.531-17.109-17.07a10.72,10.72,0,0,1-1-1.148,2.029,2.029,0,0,1,.295-2.879,2.068,2.068,0,0,1,2.793-.2,5.7,5.7,0,0,1,.838.729q8.846,8.822,17.691,17.66A2.88,2.88,0,0,1,43.3,119.36" transform="translate(-11866.479 547.222)" fill="#fff"/>
  </g>
</svg>
