<svg xmlns="http://www.w3.org/2000/svg" width="106.1" height="108.408" viewBox="0 0 106.1 108.408">
  <g id="Raggruppa_97" data-name="Raggruppa 97" transform="translate(-157.295 -594.144)">
    <path id="Tracciato_444" data-name="Tracciato 444" d="M108.441,70V68.552a.851.851,0,0,0-.853-.854H22.361a.856.856,0,0,0-.854.854v104.82h1.366V69.064h84.2V173.371h1.366V72.749h-.031V70Z" transform="translate(145.371 526.446)" fill="#fff"/>
    <path id="Tracciato_445" data-name="Tracciato 445" d="M56.207,71.913a33.4,33.4,0,1,0,33.4,33.4,33.439,33.439,0,0,0-33.4-33.4m0,65.434a32.03,32.03,0,1,1,32.03-32.03,32.068,32.068,0,0,1-32.03,32.03" transform="translate(154.138 554.937)" fill="#fff"/>
    <path id="Tracciato_446" data-name="Tracciato 446" d="M47.137,73.255A22.991,22.991,0,1,0,70.127,96.246,23.015,23.015,0,0,0,47.137,73.255m0,45.3A22.339,22.339,0,0,1,26.877,105.58c4-3.057,9.257-3.523,14.083-2.762,5.067.791,9.784,3.577,14.96,3.608a10.089,10.089,0,0,0,6.813-2.289c.248-.217-.116-.582-.357-.365C58,107.6,51.862,105.44,47.051,103.85c-4.454-1.474-9.179-2.39-13.866-1.544A15.6,15.6,0,0,0,26.66,105.1a22.308,22.308,0,1,1,20.477,13.455" transform="translate(163.208 564.007)" fill="#fff"/>
    <path id="Tracciato_447" data-name="Tracciato 447" d="M38.8,74.228a15.5,15.5,0,0,0-13.377,7.72.341.341,0,0,0,.124.466.353.353,0,0,0,.171.047.342.342,0,0,0,.295-.171A14.835,14.835,0,0,1,38.8,74.911a.341.341,0,0,0,0-.683" transform="translate(171.544 570.584)" fill="#fff"/>
    <path id="Tracciato_448" data-name="Tracciato 448" d="M36.643,82.509a7.89,7.89,0,1,0-5.579,2.312,7.835,7.835,0,0,0,5.579-2.312M23.856,76.93a7.209,7.209,0,1,1,7.208,7.208,7.186,7.186,0,0,1-7.208-7.208" transform="translate(156.632 535.51)" fill="#fff"/>
    <path id="Tracciato_449" data-name="Tracciato 449" d="M32.766,70.046a.341.341,0,1,0,0-.683H27.73a.341.341,0,1,0,0,.683Z" transform="translate(185.129 537.7)" fill="#fff"/>
    <path id="Tracciato_450" data-name="Tracciato 450" d="M34.063,70.046a.341.341,0,1,0,0-.683H29.027a.341.341,0,1,0,0,.683Z" transform="translate(193.896 537.7)" fill="#fff"/>
    <path id="Tracciato_451" data-name="Tracciato 451" d="M31.469,70.046a.341.341,0,1,0,0-.683H26.433a.341.341,0,1,0,0,.683Z" transform="translate(176.362 537.7)" fill="#fff"/>
    <path id="Tracciato_452" data-name="Tracciato 452" d="M116.789,68h-.031v2.739h6.875V171.356H23.011V70.735h6.844V68H20.272V174.1h106.1V68Z" transform="translate(137.023 528.457)" fill="#fff"/>
  </g>
</svg>
