<svg xmlns="http://www.w3.org/2000/svg" width="120.076" height="113.306" viewBox="0 0 120.076 113.306">
  <g id="Raggruppa_106" data-name="Raggruppa 106" transform="translate(-591.609 -1025.156)">
    <path id="Tracciato_577" data-name="Tracciato 577" d="M83.722,124.178c1.66.791,3.329,1.676,4.989,2.654h17.645c-.295-.9-.59-1.8-.877-2.654Z" transform="translate(565.896 908.208)" fill="#fff"/>
    <path id="Tracciato_578" data-name="Tracciato 578" d="M80.789,148.022V126.909h7.177l1.73-2.731H78.05v25.862c.877-.675,1.792-1.35,2.739-2.017" transform="translate(527.559 908.208)" fill="#fff"/>
    <path id="Tracciato_579" data-name="Tracciato 579" d="M154.448,124.178l3.569,2.289s.054.124.14.365h17.458a2.087,2.087,0,0,1,.8.085h4.974v100.6H80.79V167.56a3.589,3.589,0,0,0-2.739.241v62.454H184.12V124.178Z" transform="translate(527.565 908.208)" fill="#fff"/>
    <path id="Tracciato_580" data-name="Tracciato 580" d="M192.108,173.477l-2.429-4.64a.672.672,0,0,0-.528-.365.662.662,0,0,0-.59.225c-.085.093-8.039,9.133-9.691,10.762-1.443,1.435-3.026,1.443-4.966.039a3.9,3.9,0,0,1-1.567-1.963c.233-.466.357-.729.365-.745l.016-.039c4.1-10.358,3.367-21.842,2.033-29.648a77.978,77.978,0,0,0-3.9-14.6.621.621,0,0,0-.264-.318l-10.529-6.743a.682.682,0,0,0-.341-.109l-5.237-.217a.682.682,0,0,0-.675.9c.039.116,3.887,11.522,4.477,13.773.52,1.963-.256,3.344-2.452,4.322a3.873,3.873,0,0,1-2.483.372c-.287-.435-.45-.675-.458-.683l-.031-.039c-6.921-8.721-17.233-13.835-24.659-16.589a78.929,78.929,0,0,0-14.6-3.918.748.748,0,0,0-.411.07l-11.1,5.75a.658.658,0,0,0-.264.24l-2.809,4.423a.687.687,0,0,0-.047.636.678.678,0,0,0,.489.4c.124.023,11.926,2.4,14.168,3.011,1.963.535,2.762,1.893,2.522,4.283a3.915,3.915,0,0,1-.923,2.343c-.52.023-.815.047-.822.047l-.047.008c-11.018,1.637-20.6,8.008-26.692,13.067a77.993,77.993,0,0,0-10.692,10.677.668.668,0,0,0-.147.388l-.574,12.5a.7.7,0,0,0,.078.349l2.429,4.64a.681.681,0,0,0,.52.357.669.669,0,0,0,.6-.225c.085-.093,8.039-9.125,9.691-10.762,1.443-1.436,3.018-1.443,4.966-.039a3.882,3.882,0,0,1,1.567,1.971c-.233.458-.357.722-.365.737l-.016.039c-4.1,10.359-3.367,21.842-2.041,29.648a78.294,78.294,0,0,0,3.911,14.6.62.62,0,0,0,.264.318l10.529,6.743a.6.6,0,0,0,.341.109l5.23.217a.689.689,0,0,0,.582-.272.7.7,0,0,0,.1-.628c-.039-.116-3.887-11.523-4.477-13.773-.52-1.963.256-3.336,2.452-4.322a3.872,3.872,0,0,1,2.483-.372l.458.691.031.031c6.921,8.721,17.226,13.835,24.659,16.589a78.745,78.745,0,0,0,14.6,3.918l.093.008a.769.769,0,0,0,.318-.078l11.1-5.75a.658.658,0,0,0,.264-.24l2.809-4.423a.685.685,0,0,0,.047-.636.677.677,0,0,0-.5-.4c-.116-.023-11.918-2.39-14.161-3-1.963-.543-2.762-1.9-2.522-4.291a3.865,3.865,0,0,1,.923-2.336c.52-.031.807-.054.823-.054l.047-.008c11.018-1.63,20.6-8.008,26.692-13.067a78,78,0,0,0,10.692-10.677.649.649,0,0,0,.147-.388l.574-12.492a.662.662,0,0,0-.078-.349m-1.854,12.554a78.291,78.291,0,0,1-10.374,10.32c-5.959,4.935-15.293,11.15-25.978,12.741-.078.008-.38.031-.861.054a.663.663,0,0,0-.551.163,4.951,4.951,0,0,0-1.56,3.4c-.4,3.849,1.7,5.253,3.515,5.75,1.932.528,10.374,2.242,13.284,2.832l-2.173,3.422-10.747,5.563a78.8,78.8,0,0,1-14.13-3.825c-7.247-2.693-17.3-7.666-24.015-16.124-.054-.078-.256-.372-.559-.846a.687.687,0,0,0-.365-.279,5.009,5.009,0,0,0-3.7.357c-3.523,1.583-3.693,4.1-3.212,5.92.5,1.932,3.243,10.1,4.19,12.919l-4.058-.171L98.772,221.7a78.651,78.651,0,0,1-3.748-14.145c-1.3-7.627-2.01-18.816,1.955-28.864.031-.085.194-.411.45-.908a.7.7,0,0,0,.062-.45,5.017,5.017,0,0,0-2.157-3.026c-3.143-2.266-5.4-1.156-6.743.171-1.412,1.4-7.123,7.86-9.086,10.087l-1.886-3.593.559-12.089a79.3,79.3,0,0,1,10.351-10.3c5.959-4.943,15.309-11.166,26-12.756.085-.008.45-.031,1.024-.062h.008a.676.676,0,0,0,.512-.272,5.1,5.1,0,0,0,1.428-3.282c.4-3.849-1.7-5.245-3.523-5.75-1.924-.52-10.366-2.242-13.276-2.832l2.173-3.422,10.747-5.563a78.82,78.82,0,0,1,14.13,3.825c7.247,2.693,17.3,7.674,24.015,16.124.054.078.248.365.551.838l.008.008a.741.741,0,0,0,.365.287,5.021,5.021,0,0,0,3.7-.365c3.523-1.583,3.693-4.089,3.212-5.92-.5-1.932-3.243-10.1-4.19-12.919l4.058.171,10.188,6.525a78.618,78.618,0,0,1,3.748,14.153c1.3,7.62,2.01,18.816-1.955,28.864-.039.078-.194.4-.45.9a.716.716,0,0,0-.062.458,5.026,5.026,0,0,0,2.157,3.018c3.135,2.266,5.393,1.156,6.735-.171,1.42-1.4,7.131-7.86,9.094-10.087l1.886,3.592Z" transform="translate(515.363 901.91)" fill="#fff"/>
    <path id="Tracciato_581" data-name="Tracciato 581" d="M113.535,150.682l.093-.225.085-.225.008-.023a16.345,16.345,0,0,0,.978-5.959v-.163l-.008-.155a16.375,16.375,0,0,0-1.335-5.9v-.008c-.093-.2-.186-.411-.287-.613l-.1-.209c-.062-.132-.14-.272-.21-.4a16.27,16.27,0,0,0-2.623-3.631c-.109-.109-.217-.225-.326-.326l-.147-.147a16.414,16.414,0,0,0-5.377-3.484l-.023-.008-.217-.085-.233-.093h-.008a16.309,16.309,0,0,0-5.982-.985l-.124.008H97.5a16.33,16.33,0,0,0-5.889,1.335l-.016.008q-.3.128-.605.279l-.24.116c-.124.062-.248.124-.372.194a16.422,16.422,0,0,0-3.647,2.638c-.109.1-.209.2-.318.31l-.147.147a16.366,16.366,0,0,0-3.484,5.385l-.008.008-.085.233-.085.225-.008.016a16.414,16.414,0,0,0-.978,5.967v.163l.008.147a16.253,16.253,0,0,0,1.335,5.913c.085.209.186.411.279.621l.1.209.209.4a16.742,16.742,0,0,0,2.63,3.631l.326.326.147.147a16.39,16.39,0,0,0,9.823,4.57c.574.054,1.141.085,1.707.085a16.383,16.383,0,0,0,8.915-2.63l.248-.163.194-.132c.365-.248.714-.512,1.063-.792v-.008h.008c.31-.256.613-.52.908-.8l.016-.016.132-.124.233-.233.054-.054a16.337,16.337,0,0,0,3.577-5.47v-.016m-.466-.691c-.07.2-.155.4-.233.605l-.085.21c-.062.132-.124.264-.178.4a16.336,16.336,0,0,1-1.552,2.654c-.272.372-.551.722-.846,1.063l-.186.217-.194.209c-.132.147-.272.287-.4.427l-.085.078c-.357.357-.737.7-1.125,1.016-.2.163-.411.326-.621.481l-.031.023-.248.171-.163.116-.109.07a15.891,15.891,0,0,1-10.684,2.592,2.955,2.955,0,0,1-.365-.047c-.124-.016-.248-.031-.372-.054l-.419-.07c-.124-.023-.241-.047-.365-.078s-.248-.054-.365-.085c-.147-.031-.3-.07-.45-.109l-.248-.07c-.194-.054-.38-.116-.574-.178l-.093-.031a15.759,15.759,0,0,1-4.2-2.165c-.4-.287-.784-.6-1.148-.916l-.124-.109c-.109-.093-.217-.194-.326-.295l-.318-.31-.109-.109c-.341-.349-.675-.721-.985-1.1a16.327,16.327,0,0,1-1.707-2.561c-.062-.124-.132-.256-.2-.38l-.093-.209c-.093-.194-.186-.388-.272-.582v-.008a15.767,15.767,0,0,1-1.086-3.748,16.029,16.029,0,0,1-.194-1.917l-.008-.148v-.147a15.991,15.991,0,0,1,.939-5.726l.008-.008q.1-.3.233-.605l.085-.209c.054-.132.116-.264.178-.4A16.013,16.013,0,0,1,85.3,135.3c.287-.4.6-.784.916-1.156l.109-.116c.1-.116.2-.217.295-.326l.31-.318.116-.109c.349-.341.714-.675,1.094-.985a16.3,16.3,0,0,1,2.762-1.816l.132-.07c.124-.054.24-.116.365-.171s.248-.116.372-.171l.209-.093c.2-.085.4-.163.613-.241l.008-.008a16.525,16.525,0,0,1,3.026-.8,15.771,15.771,0,0,1,1.893-.186c.2-.008.4-.016.613-.016.543,0,1.086.031,1.637.085a15.925,15.925,0,0,1,4.438,1.109c.147.062.295.124.442.194l.132.054a15.54,15.54,0,0,1,2.654,1.56c.4.287.784.6,1.156.916l.124.109c.109.093.209.194.318.295s.217.2.318.31l.116.109c.341.349.667.714.985,1.1a15.766,15.766,0,0,1,1.7,2.561c.07.124.14.248.2.38l.1.2c.093.194.186.4.272.59v.008a15.77,15.77,0,0,1,1.086,3.748,17.8,17.8,0,0,1,.194,1.917v.147l.008.147a17.813,17.813,0,0,1-.078,1.924,15.944,15.944,0,0,1-.869,3.8v.008" transform="translate(551.672 934.233)" fill="#fff"/>
    <path id="Tracciato_582" data-name="Tracciato 582" d="M96.8,128.5a13.419,13.419,0,0,0-2.724,26.7c.466.047.923.07,1.381.07A13.419,13.419,0,0,0,96.8,128.5m11.305,14.642A12.737,12.737,0,1,1,95.43,129.114a12.461,12.461,0,0,1,1.3.07,12.749,12.749,0,0,1,11.375,13.959" transform="translate(554.398 936.954)" fill="#fff"/>
    <path id="Tracciato_583" data-name="Tracciato 583" d="M88.066,129.613a4.438,4.438,0,0,0-.9,8.83c.155.016.31.023.458.023a4.4,4.4,0,0,0,2.8-.993,4.438,4.438,0,0,0-2.359-7.86m3.29,4.8a3.768,3.768,0,0,1-4.12,3.36,3.782,3.782,0,0,1-2.529-1.366,3.755,3.755,0,0,1,2.9-6.13c.132,0,.264.008.388.016a3.754,3.754,0,0,1,3.36,4.12" transform="translate(562.212 944.78)" fill="#fff"/>
    <path id="Tracciato_584" data-name="Tracciato 584" d="M126.866,134.024a39.334,39.334,0,0,1,7.953,4.089,2.292,2.292,0,0,0,3.5-2.956.413.413,0,0,0-.062-.132,20.347,20.347,0,0,0-5.649-5.059c-4.019-2.894-10.413-3.748-15.076-3.949a.342.342,0,1,0-.031.683c4.57.2,10.84,1.032,14.727,3.833l.023.016a20.377,20.377,0,0,1,5.416,4.826.312.312,0,0,0,.07.155,1.606,1.606,0,0,1-2.429,2.1l-.062-.054a39.69,39.69,0,0,0-8.116-4.19c-4.438-1.684-11.1-3.251-17.645-1.172-11.429,3.639-20.019,8.737-32.674,25.233a.345.345,0,0,0,.062.481.357.357,0,0,0,.209.07.328.328,0,0,0,.272-.14c12.539-16.349,21.043-21.392,32.341-24.992,6.355-2.017,12.841-.489,17.171,1.156" transform="translate(518.703 920.631)" fill="#fff"/>
    <path id="Tracciato_585" data-name="Tracciato 585" d="M98.526,132.406a2.292,2.292,0,0,0-.815-4.508.289.289,0,0,0-.14-.016,20.477,20.477,0,0,0-7.208,2.359c-4.516,2.033-8.45,7.154-10.956,11.088a.346.346,0,0,0,.1.473.327.327,0,0,0,.186.054.331.331,0,0,0,.287-.163c2.46-3.856,6.316-8.877,10.677-10.832l.031-.016a20.085,20.085,0,0,1,6.882-2.273.32.32,0,0,0,.171.008,1.6,1.6,0,0,1,1.885,1.28,1.578,1.578,0,0,1-.248,1.2,1.616,1.616,0,0,1-1.024.683l-.078.023a39.543,39.543,0,0,0-7.689,4.935c-3.678,3-8.364,7.977-9.839,14.7-2.561,11.716-2.444,21.7,5.517,40.907a.338.338,0,0,0,.318.209l.124-.023a.341.341,0,0,0,.186-.45c-7.883-19.033-8.008-28.919-5.47-40.5,1.42-6.518,6-11.375,9.583-14.3a39.394,39.394,0,0,1,7.519-4.842" transform="translate(535.776 933.173)" fill="#fff"/>
    <path id="Tracciato_586" data-name="Tracciato 586" d="M86.948,142.591a39.391,39.391,0,0,1-.435-8.931,2.27,2.27,0,0,0-.116-1.715,2.3,2.3,0,0,0-1.311-1.164,2.306,2.306,0,0,0-2.886,1.327.307.307,0,0,0-.078.116,20.432,20.432,0,0,0-1.56,7.418c-.5,4.927,1.963,10.894,4.12,15.037a.344.344,0,0,0,.3.186.355.355,0,0,0,.155-.039.345.345,0,0,0,.147-.466c-2.11-4.058-4.531-9.9-4.043-14.665v-.031a20.129,20.129,0,0,1,1.474-7.1.438.438,0,0,0,.093-.14,1.618,1.618,0,0,1,2.048-1,1.657,1.657,0,0,1,.923.823,1.6,1.6,0,0,1,.07,1.226l-.016.078a39.223,39.223,0,0,0,.435,9.133c.753,4.679,2.724,11.235,7.806,15.86,8.861,8.085,17.575,12.974,38.183,15.682l.039.008a.35.35,0,0,0,.341-.3.34.34,0,0,0-.295-.38c-20.43-2.685-29.051-7.526-37.811-15.511-4.927-4.493-6.844-10.878-7.589-15.449" transform="translate(544.103 951.984)" fill="#fff"/>
    <path id="Tracciato_587" data-name="Tracciato 587" d="M144.7,130.255a.345.345,0,0,0-.481.062c-12.539,16.349-21.035,21.4-32.333,24.992-6.355,2.025-12.849.489-17.179-1.148a39.231,39.231,0,0,1-7.945-4.1,2.294,2.294,0,0,0-3.5,2.964.255.255,0,0,0,.054.124,20.667,20.667,0,0,0,5.649,5.067c4.019,2.886,10.421,3.74,15.084,3.942h.016a.341.341,0,0,0,.341-.326.345.345,0,0,0-.326-.357c-4.578-.2-10.847-1.024-14.727-3.825l-.031-.023a20.143,20.143,0,0,1-5.408-4.818.416.416,0,0,0-.078-.155,1.612,1.612,0,0,1,2.436-2.111l.054.054a39.709,39.709,0,0,0,8.124,4.19,31.408,31.408,0,0,0,10.979,2.172,21.891,21.891,0,0,0,6.665-1c11.429-3.639,20.019-8.737,32.666-25.225a.345.345,0,0,0-.062-.481" transform="translate(559.392 948.803)" fill="#fff"/>
    <path id="Tracciato_588" data-name="Tracciato 588" d="M87.335,184.23a2.295,2.295,0,0,0,.473,4.539,2.656,2.656,0,0,0,.349-.031l.1.016h.031a20.474,20.474,0,0,0,7.208-2.359c4.516-2.033,8.45-7.154,10.956-11.088a.346.346,0,0,0-.1-.473.341.341,0,0,0-.473.109c-2.46,3.856-6.316,8.877-10.677,10.832l-.031.016a20.082,20.082,0,0,1-6.882,2.273.32.32,0,0,0-.171-.008,1.6,1.6,0,0,1-1.885-1.28,1.578,1.578,0,0,1,.248-1.2,1.616,1.616,0,0,1,1.024-.683l.078-.023a39.536,39.536,0,0,0,7.689-4.935c3.678-3,8.364-7.977,9.839-14.7,2.561-11.716,2.444-21.7-5.517-40.907a.341.341,0,1,0-.629.264c7.883,19.033,8.008,28.919,5.47,40.5-1.42,6.518-6,11.375-9.583,14.3a39.4,39.4,0,0,1-7.519,4.842" transform="translate(578.035 907.801)" fill="#fff"/>
    <path id="Tracciato_589" data-name="Tracciato 589" d="M125.978,155.688a39.387,39.387,0,0,1,.435,8.931,2.27,2.27,0,0,0,.116,1.715,2.282,2.282,0,0,0,2.064,1.288,2.278,2.278,0,0,0,1-.233,2.247,2.247,0,0,0,1.133-1.226.278.278,0,0,0,.078-.109,20.432,20.432,0,0,0,1.56-7.418c.5-4.927-1.963-10.894-4.12-15.037a.338.338,0,0,0-.458-.147.345.345,0,0,0-.147.466c2.11,4.058,4.531,9.9,4.043,14.665v.031a20.128,20.128,0,0,1-1.474,7.1.44.44,0,0,0-.093.14,1.618,1.618,0,0,1-2.048,1,1.657,1.657,0,0,1-.923-.823,1.6,1.6,0,0,1-.07-1.226l.016-.078a39.222,39.222,0,0,0-.435-9.133c-.753-4.679-2.724-11.235-7.806-15.86-8.861-8.085-17.575-12.973-38.183-15.681a.34.34,0,1,0-.085.675c20.43,2.685,29.051,7.526,37.811,15.511,4.927,4.493,6.844,10.878,7.589,15.449" transform="translate(542.643 907.347)" fill="#fff"/>
  </g>
</svg>
