<svg xmlns="http://www.w3.org/2000/svg" width="121.177" height="106.1" viewBox="0 0 121.177 106.1">
  <g id="Raggruppa_98" data-name="Raggruppa 98" transform="translate(-362.131 -595.292)">
    <path id="Tracciato_453" data-name="Tracciato 453" d="M56.23,85.876l.334-1.668H165.108V82.834h-93.3l6.642-11.189h67.195l4.5,7.534a.682.682,0,1,0,1.172-.7l-4.694-7.876a.7.7,0,0,0-.59-.334H78.065a.691.691,0,0,0-.59.341L70.22,82.834H56.005a.69.69,0,0,0-.675.551L54.888,85.6a7.7,7.7,0,0,1-7.534,6.176.618.618,0,0,0-.264.054.682.682,0,0,0,.264,1.311h6.238a57.871,57.871,0,0,0,4.694,16.364,62.362,62.362,0,0,0,3.461,6.673v-.047c.093.171.186.349.279.512a60,60,0,0,0,5.757,7.938,62.136,62.136,0,0,0,17.4,14.052.7.7,0,0,0,.326.085h53.073a.693.693,0,0,0,.349-.093,67.69,67.69,0,0,0,16.341-13.346,53.052,53.052,0,0,0,8.512-13.036c.5-1.117.939-2.188,1.319-3.212v-4.555a44.92,44.92,0,0,1-2.568,7.2,52.019,52.019,0,0,1-8.287,12.7,66.449,66.449,0,0,1-15.86,12.973h-52.7a62.906,62.906,0,0,1-10.537-7.317h26.319a.341.341,0,1,0,0-.683h-27.1a59.123,59.123,0,0,1-5.525-5.633q-1.478-1.723-2.824-3.561H92.683a.341.341,0,0,0,.349-.341.346.346,0,0,0-.349-.341H65.526a61.473,61.473,0,0,1-5.377-9.187H86.988a.344.344,0,0,0,.341-.341.339.339,0,0,0-.341-.341H59.831c-.093-.2-.186-.4-.272-.605a62.623,62.623,0,0,1-3.088-8.6h26.94a.339.339,0,0,0,.341-.341.344.344,0,0,0-.341-.341H56.285a47.807,47.807,0,0,1-1.319-6.58H165.108V91.781H52.126a9.048,9.048,0,0,0,4.1-5.9" transform="translate(315.46 543.845)" fill="#fff"/>
    <path id="Tracciato_454" data-name="Tracciato 454" d="M48.614,67.846V99.139h2.739V70.585H151.975V171.207H51.353v-34.4c-.908-1.358-1.746-2.506-2.46-3.763l-.279-.512v41.411h106.1V67.846Z" transform="translate(328.594 527.446)" fill="#fff"/>
  </g>
</svg>
