<svg xmlns="http://www.w3.org/2000/svg" width="113.366" height="106.1" viewBox="0 0 113.366 106.1">
  <g id="Raggruppa_99" data-name="Raggruppa 99" transform="translate(-598.218 -596.472)">
    <path id="Tracciato_431" data-name="Tracciato 431" d="M78.034,68V96.715a11.511,11.511,0,0,1,2.444-.256h.295V70.737H181.395V171.359H80.773V105.972H78.034V174.1h106.1V68Z" transform="translate(527.45 528.474)" fill="#fff"/>
    <path id="Tracciato_432" data-name="Tracciato 432" d="M157.106,69.1c-26.2-.256-43.134,5.4-43.3,5.462a.686.686,0,0,0-.38.31L102.675,94.217l-4.407,6.13a.482.482,0,0,0-.14-.109L93.1,97.476V95.847a.344.344,0,0,0-.341-.341.339.339,0,0,0-.341.341V97.2H79.972a1.6,1.6,0,0,1-1.4-.644.617.617,0,0,1-.016-.652l1.009-1.847a7.334,7.334,0,0,1,4.8-3.336,10,10,0,0,1,2.444-.295h8.4A3.987,3.987,0,0,1,98.8,92.262a.683.683,0,0,0,.916.31.694.694,0,0,0,.31-.923,5.288,5.288,0,0,0-4.818-2.592h-8.4a11.457,11.457,0,0,0-2.444.264,8.8,8.8,0,0,0-6,4.081l-1.017,1.847a2,2,0,0,0,.039,2.01,2.957,2.957,0,0,0,2.584,1.319H92.262l5.206,2.863h.016l-.062.085a25.282,25.282,0,0,0-4.663,17.342l1.723,16.612a9.878,9.878,0,0,0,3.181,6.269,10.6,10.6,0,0,0,6.65,2.747l16.046.8v9.078a3.225,3.225,0,0,1-2.894,3.468H105.771a3.231,3.231,0,0,1-2.9-3.468V147.95a.683.683,0,1,0-1.366,0v6.425a4.587,4.587,0,0,0,4.268,4.834h11.693a4.587,4.587,0,0,0,4.268-4.834v-9.016l3.662.186.132.008,7.038.341h49.069l6.091-.295v-1.373l-6.145.3H132.618l-6.246-.31,5.54-10.863a7.528,7.528,0,0,1,6.743-3.887h38.866a7.561,7.561,0,0,1,6.619,3.631l3.585,6.223v-1.366l-3-5.2a8.216,8.216,0,0,0-7.208-3.973H138.655a8.2,8.2,0,0,0-7.348,4.26l-5.68,11.134-21.245-1.047a8.826,8.826,0,0,1-8.543-7.79l-1.715-16.612a23.835,23.835,0,0,1,4.407-16.4l3.608-5.013,6.363.916a18.3,18.3,0,0,0,2.522.178c.566,0,1.141-.031,1.707-.085L133.642,96.3l2.382,4.989a7.074,7.074,0,0,0,6.471,3.771h19.041a.344.344,0,0,0,.341-.341.339.339,0,0,0-.341-.341H142.5a6.376,6.376,0,0,1-5.85-3.383l-2.281-4.764.473-.047H181.02l.512.047-3.119,7.806a.34.34,0,0,0,.194.442l.124.023a.337.337,0,0,0,.318-.209l3.2-7.992,5.478.52v-.691l-5.408-.512-.466-.039-.784-.078H134.791l-.776.078-.473.047-20.88,2.017a17.325,17.325,0,0,1-4.058-.1l-6.013-.861,1.218-1.7.047-.07,10.638-19.142c2.165-.683,18.343-5.54,42.614-5.307a164.112,164.112,0,0,1,30.618,2.5v-1.4a166.193,166.193,0,0,0-30.618-2.46" transform="translate(521.12 535.867)" fill="#fff"/>
    <path id="Tracciato_433" data-name="Tracciato 433" d="M87.224,75.062a.4.4,0,0,0-.217.171l-5.393,9.6a.349.349,0,0,0,.132.466.335.335,0,0,0,.466-.132L87.534,75.7a166.713,166.713,0,0,1,69.934-2.421v-.706a167.924,167.924,0,0,0-70.244,2.491" transform="translate(551.377 541.972)" fill="#fff"/>
    <path id="Tracciato_434" data-name="Tracciato 434" d="M108.845,85.448a.342.342,0,1,0,0,.683h4.834a.351.351,0,0,0,.349-.341V84.33a5.971,5.971,0,0,0-5.354-5.711L79.9,74.36a.342.342,0,0,0-.326.132.3.3,0,0,0-.031.341l4.881,11.1a.348.348,0,0,0,.31.2h15.953a.341.341,0,1,0,0-.683H84.954l-4.539-10.32L108.573,79.3a5.275,5.275,0,0,1,4.764,5.028v1.117Z" transform="translate(537.359 571.438)" fill="#fff"/>
    <path id="Tracciato_435" data-name="Tracciato 435" d="M90.938,80.02v1.459a.339.339,0,0,0,.341.341h2.894v-.683H91.621V80.02a4.967,4.967,0,0,1,2.553-4.252v-.776a5.684,5.684,0,0,0-3.236,5.028" transform="translate(614.671 575.748)" fill="#fff"/>
    <path id="Tracciato_436" data-name="Tracciato 436" d="M85.56,77.683a.341.341,0,0,0,0-.683,4.531,4.531,0,1,0,5.059,4.5.344.344,0,0,0-.341-.341.339.339,0,0,0-.341.341,4.417,4.417,0,1,1-4.376-3.818" transform="translate(544.125 589.32)" fill="#fff"/>
    <path id="Tracciato_437" data-name="Tracciato 437" d="M84.846,75.677a.341.341,0,1,0,0,.683h44.926a.341.341,0,1,0,0-.683Z" transform="translate(571.189 580.378)" fill="#fff"/>
  </g>
</svg>
