<svg xmlns="http://www.w3.org/2000/svg" width="110.381" height="111.166" viewBox="0 0 110.381 111.166">
  <g id="Raggruppa_100" data-name="Raggruppa 100" transform="translate(-833.747 -591.406)">
    <path id="Tracciato_455" data-name="Tracciato 455" d="M212.971,118.734l-.008-.116-.008-.039-.031-.093-.008-.023-.039-.078-4.182-7.022-.411-.691-.722-1.2-1.389-2.343-.194-.318-.023-.039-3.321-5.579a.7.7,0,0,0-.59-.334H198.22a.687.687,0,1,0,0,1.373h3.437l9.427,15.821H149.539l9.428-15.821h5a.687.687,0,1,0,0-1.373h-5.393a.688.688,0,0,0-.582.334l-2.592,4.345L151.75,90.817a5.375,5.375,0,0,0-3.453-3.872V81.9h2.491a.689.689,0,0,0,.683-.683V70.487a3.144,3.144,0,0,0-3.142-3.143H127.5a3.144,3.144,0,0,0-3.142,3.143V81.219a.689.689,0,0,0,.683.683h2.677v5a4.708,4.708,0,0,0-1.513.877,4.657,4.657,0,0,0-1.614,3.36,97.341,97.341,0,0,1-7.177,32.791.678.678,0,0,0,.365.892.643.643,0,0,0,.264.054.672.672,0,0,0,.629-.419,98.571,98.571,0,0,0,7.286-33.272,3.294,3.294,0,0,1,3.29-3.173h17.264a4,4,0,0,1,3.911,3.119l3.98,16.085-4.112,6.89-34.04,15.658-.016.008a10.919,10.919,0,0,0-5.928,8.155,176.634,176.634,0,0,0-1.854,37.85h1.366a175.818,175.818,0,0,1,1.839-37.648A9.57,9.57,0,0,1,116.834,131l32.224-14.828-1.148,1.924a.685.685,0,0,0-.435.636v57.038h.124v2.444a.68.68,0,0,0,.559.287h64.13a.679.679,0,0,0,.683-.683V118.734M125.726,80.528V70.487a1.782,1.782,0,0,1,1.777-1.777h3.717v5.168a.345.345,0,0,0,.691,0V68.711h5.664v5.168a.341.341,0,1,0,.683,0V68.711h5.664v5.168a.345.345,0,0,0,.691,0V68.711h3.717a1.775,1.775,0,0,1,1.769,1.777v10.04H125.726Zm3.523,6.114h-.155V81.9h17.831v4.756a3.579,3.579,0,0,0-.411-.016Zm82.357,90.5H148.841V119.417h62.764Z" transform="translate(731.157 524.061)" fill="#fff"/>
    <path id="Tracciato_456" data-name="Tracciato 456" d="M116.187,87.733h30.486a.683.683,0,1,0,0-1.366H143.88v-11.8a3.812,3.812,0,0,0-3.81-3.81h-17.1a3.812,3.812,0,0,0-3.81,3.81v11.8h-2.972a.683.683,0,1,0,0,1.366m4.337-13.167a2.444,2.444,0,0,1,2.444-2.444h17.1a2.444,2.444,0,0,1,2.444,2.444v11.8h-21.99Z" transform="translate(780.719 547.115)" fill="#fff"/>
    <path id="Tracciato_457" data-name="Tracciato 457" d="M117.108,71.583a.344.344,0,0,0-.341.341V75.9a.341.341,0,0,0,.683,0V71.924a.344.344,0,0,0-.341-.341" transform="translate(789.256 552.706)" fill="#fff"/>
    <path id="Tracciato_458" data-name="Tracciato 458" d="M117.89,71.583a.351.351,0,0,0-.349.341V75.9a.345.345,0,0,0,.691,0V71.924a.35.35,0,0,0-.341-.341" transform="translate(794.487 552.706)" fill="#fff"/>
    <path id="Tracciato_459" data-name="Tracciato 459" d="M118.657,71.583a.344.344,0,0,0-.341.341V75.9a.341.341,0,0,0,.683,0V71.924a.344.344,0,0,0-.341-.341" transform="translate(799.726 552.706)" fill="#fff"/>
    <path id="Tracciato_460" data-name="Tracciato 460" d="M113.76,68v2.739h54.423v31.627l.016.039.062.062.132.256,1.4,2.343.272.411a7.274,7.274,0,0,1,.442.791l.411.691V68Z" transform="translate(768.931 528.474)" fill="#fff"/>
    <path id="Tracciato_461" data-name="Tracciato 461" d="M114.684,171.359h-4.493V70.737h18.995V68H107.452V174.1h45.011v-2.739h-37.78Z" transform="translate(726.295 528.474)" fill="#fff"/>
  </g>
</svg>
