<svg xmlns="http://www.w3.org/2000/svg" width="106.1" height="123.898" viewBox="0 0 106.1 123.898">
  <g id="Raggruppa_103" data-name="Raggruppa 103" transform="translate(-377.805 -781.523)">
    <path id="Tracciato_424" data-name="Tracciato 424" d="M107.521,94.141l1.459,2.739h43.079V197.5H51.43V96.88H91.693a3.04,3.04,0,0,1,.1-1.412,3.876,3.876,0,0,1,.714-1.327H48.691v106.1h106.1V94.141Z" transform="translate(329.114 705.181)" fill="#fff"/>
    <path id="Tracciato_425" data-name="Tracciato 425" d="M54.317,102.374a4.809,4.809,0,0,0,1.482,1.839,4.86,4.86,0,0,0,7.4-5.765l-.008-.023-.016-.016a3.711,3.711,0,0,0-.341-.652l-.016-.031-.008-.016-.016-.016a4.854,4.854,0,0,0-8.5,4.624l.023.054m1.071-4.555A4.188,4.188,0,0,1,61.239,97a4.107,4.107,0,0,1,.993,1.078l.031.039a3.794,3.794,0,0,1,.287.559l.008.023.016.023a4.173,4.173,0,0,1-6.363,4.943,4.107,4.107,0,0,1-1.249-1.529l-.023-.054a4.142,4.142,0,0,1,.45-4.26" transform="translate(364.068 714.196)" fill="#fff"/>
    <path id="Tracciato_426" data-name="Tracciato 426" d="M56.508,100.878a.344.344,0,0,0,.341.341H79.382a.341.341,0,1,0,0-.683H56.849a.344.344,0,0,0-.341.341" transform="translate(381.951 748.412)" fill="#fff"/>
    <path id="Tracciato_427" data-name="Tracciato 427" d="M58.8,149.854a31.429,31.429,0,0,0,3.228,22.285,6.814,6.814,0,0,0,6,3.593h.016l46.633-.078a5.158,5.158,0,0,0,4.85-3.437l1.684-4.756a3.113,3.113,0,0,0-.4-2.84,3.158,3.158,0,0,0-2.553-1.311l-25.83.062a2.72,2.72,0,0,0-2.7,2.716l.008,1.482a2.716,2.716,0,0,0,2.708,2.7l21.935-.054a.687.687,0,0,0,0-1.373l-21.943.054a1.315,1.315,0,0,1-.939-.388,1.3,1.3,0,0,1-.4-.947l-.008-1.474a1.365,1.365,0,0,1,1.342-1.35l25.838-.054A1.732,1.732,0,0,1,119.91,167l-1.676,4.756a3.783,3.783,0,0,1-3.561,2.522l-46.633.085h-.016a5.471,5.471,0,0,1-4.8-2.871,29.455,29.455,0,0,1,8.931-38.874,10.406,10.406,0,0,0,5.742,2.157l.023.008h.171c.147.008.279.016.435.016a8.732,8.732,0,0,0,1.094-.07l.155-.023a10.31,10.31,0,0,0,6.456-3.406l2.739,5.113a2.894,2.894,0,0,0,2.01,1.443l2.561,4.78a1.86,1.86,0,0,0,2.514.768l.729-.38,4.252,5.408a.343.343,0,0,0,.264.124.315.315,0,0,0,.163-.039l4.081-2.18a.333.333,0,0,0,.163-.4l-2.126-6.541.815-.435a1.879,1.879,0,0,0,.908-1.1,1.778,1.778,0,0,0-.14-1.42l-2.553-4.787a2.944,2.944,0,0,0-.062-2.483L93.59,112.384l-1.474-2.739-1.971-3.717a2.873,2.873,0,0,0-1.723-1.366,4.346,4.346,0,0,0-2.623.085l-3.484-6.526.535-.287a1.461,1.461,0,0,0,.729-.877,1.549,1.549,0,0,0-.109-1.133l-1.715-3.2a1.474,1.474,0,0,0-2-.605L70.8,96.8a1.481,1.481,0,0,0-.613,2.01L71.9,102a1.478,1.478,0,0,0,1.3.784,1.377,1.377,0,0,0,.7-.178l.535-.279,3.492,6.526a4.159,4.159,0,0,0-.815.791,4.035,4.035,0,0,0-.722,1.327,3.029,3.029,0,0,0-.093,1.412,2.66,2.66,0,0,0,.272.791l.551,1.024a10.313,10.313,0,0,0-8.954,10.731,38.981,38.981,0,0,0-13.835,16.55,38.366,38.366,0,0,0-2.142,24.977A37.233,37.233,0,0,0,59.2,180.324a.869.869,0,0,1,.194.551l-.031,3.825a.871.871,0,0,1-.411.729,8.662,8.662,0,0,0-3.329,3.375,8.872,8.872,0,0,0-.861,6.037.674.674,0,0,0,.667.535h64.634a.65.65,0,0,0,.481-.2.67.67,0,0,0,.21-.481,9.925,9.925,0,0,0-9.909-9.9H71.624a4.2,4.2,0,0,1-4.027-3.049.39.39,0,0,1,.062-.31.362.362,0,0,1,.272-.14h4.407a.683.683,0,1,0,0-1.366H67.93a1.716,1.716,0,0,0-1.645,2.188,5.552,5.552,0,0,0,5.338,4.043h39.223a8.564,8.564,0,0,1,8.512,7.852H56a7.294,7.294,0,0,1,3.624-7.395,2.227,2.227,0,0,0,1.11-1.9l.039-3.825a2.314,2.314,0,0,0-.5-1.42,36,36,0,0,1-6.758-13.361,36.92,36.92,0,0,1,2.064-24.069,37.706,37.706,0,0,1,12.764-15.573,10.123,10.123,0,0,0,.916,2.677,10.554,10.554,0,0,0,1.839,2.545,31.687,31.687,0,0,0-12.3,18.164m46.175-3.98-3.593,1.909-4-5.09,5.587-2.972ZM73.253,101.4a.116.116,0,0,1-.155-.047l-1.7-3.2a.107.107,0,0,1,.054-.155l8.946-4.78.054-.008a.117.117,0,0,1,.109.062l1.691,3.189a.109.109,0,0,1-.047.155Zm1.785.6,6.673-3.562,3.445,6.463-.171.093-6.316,3.367-.186.1Zm-4.617,18.513a8.864,8.864,0,0,1,3.973-4.058,9.009,9.009,0,0,1,3.414-.947l.784,1.529a.685.685,0,0,0,1.218-.629l-1-1.932-1.04-1.948a1.5,1.5,0,0,1-.062-1.164,3.251,3.251,0,0,1,1.606-1.792l6.316-3.368a3.19,3.19,0,0,1,2.382-.334,1.479,1.479,0,0,1,.916.7l12.4,23.239a1.611,1.611,0,0,1-.078,1.529l-.023.031a3.4,3.4,0,0,1-1.428,1.4.686.686,0,0,0-.295.923.687.687,0,0,0,.939.279,5.136,5.136,0,0,0,1.311-1.009l2.2,4.12a.475.475,0,0,1-.2.667L95.406,142.2a.49.49,0,0,1-.667-.2l-2.2-4.112a5.4,5.4,0,0,0,1.575-.535l1.769-.947a.684.684,0,1,0-.636-1.21l-1.777.947a3.5,3.5,0,0,1-1.924.427l-.1-.016a1.652,1.652,0,0,1-1.288-.776l-3.2-6.029-1.172-2.227a.681.681,0,0,0-.916-.295.7.7,0,0,0-.3.923l.962,1.847a8.894,8.894,0,0,1-2.98,2.46,8.774,8.774,0,0,1-2.956.9l-.155.023a7.324,7.324,0,0,1-1.3.047l-.171-.008a9.043,9.043,0,0,1-5.307-2.134l-.016-.016a8.888,8.888,0,0,1-2.165-2.739,9,9,0,0,1-.062-8.008" transform="translate(344.683 689.676)" fill="#fff"/>
  </g>
</svg>
