<?xml version="1.0" encoding="UTF-8"?>
<svg id="Layer_2" data-name="Layer 2" xmlns="http://www.w3.org/2000/svg" viewBox="0 0 106.41 18.6">
  <defs>
    <style>
      .cls-1 {
        fill: #19488b;
      }

      .cls-2 {
        fill: #fff;
      }

      .cls-3 {
        fill: #0f7dc2;
      }

      .cls-4 {
        fill: #fbeb32;
      }
    </style>
  </defs>
  <g>
    <path class="cls-2" d="M14.81.16l-4.13,7.82h2.91l.68-1.52h4.26l.7,1.52h3.25L18.35.16h-3.54ZM15.01,4.93l1.41-3.25h.05l1.34,3.25h-2.8Z"/>
    <path class="cls-2" d="M5.18,1.51c.76,0,1.69.24,1.78,1.1h3.06C10.02.3,6.71-.02,5.02,0,2.23.03,0,1.02,0,4.06s2.44,4.13,5.16,4.09c1.81-.02,4.76-.31,4.86-2.67h-3.03c-.22.99-1.06,1.14-1.97,1.14-1.49,0-1.96-1.17-1.96-2.49,0-1.52.42-2.63,2.12-2.63Z"/>
    <polygon class="cls-2" points="80.54 .16 77.61 .16 77.61 7.97 85.27 7.97 85.27 6.45 80.54 6.45 80.54 .16"/>
    <path class="cls-2" d="M43.07.16h-4.93v7.82h2.92v-2.79h2.01c1.71,0,4.22-.28,4.16-2.53-.05-2.21-2.42-2.49-4.16-2.49ZM42.49,3.68h-1.42v-2h1.33c.7.02,1.79.08,1.79,1s-1.02.97-1.69.99Z"/>
    <polygon class="cls-2" points="48.57 .16 48.57 7.97 56.57 7.97 56.57 6.45 51.5 6.45 51.5 4.81 56.18 4.81 56.18 3.28 51.5 3.28 51.5 1.68 56.57 1.68 56.57 .16 48.57 .16"/>
    <polygon class="cls-2" points="31.52 .16 30.92 2.07 29.88 5.44 29.85 5.44 28.12 .16 23.53 .16 23.53 7.97 26.08 7.97 26.08 1.39 26.11 1.37 28.39 7.97 29.82 7.97 31.01 7.97 33.48 1.42 33.5 1.43 33.5 7.97 36.06 7.97 36.06 .16 31.52 .16"/>
    <polygon class="cls-2" points="57.42 .16 57.42 1.68 60.62 1.68 60.62 7.97 63.54 7.97 63.54 1.68 66.82 1.68 66.82 .16 57.42 .16"/>
    <polygon class="cls-2" points="67.96 7.97 75.94 7.97 75.94 6.45 70.88 6.45 70.88 4.81 75.55 4.81 75.55 3.28 70.88 3.28 70.88 1.68 75.94 1.68 75.94 .16 67.96 .16 67.96 7.97"/>
    <path class="cls-2" d="M102.2.16h-3.55l-4.13,7.82h2.92l.68-1.52h4.25l.71,1.52h3.25L102.2.16ZM98.86,4.93l1.4-3.25h.05l1.34,3.25h-2.79Z"/>
    <polygon class="cls-2" points="89.4 .16 86.47 .16 86.47 7.97 94.13 7.97 94.13 6.45 89.4 6.45 89.4 .16"/>
  </g>
  <g>
    <polygon class="cls-4" points="102.5 11.3 99.47 16.97 103.09 16.97 106.41 10.76 100.62 10.76 100.33 11.3 102.5 11.3"/>
    <polygon class="cls-1" points="91.85 12.43 88.56 18.6 94.34 18.6 97.63 12.43 91.85 12.43"/>
    <polygon class="cls-3" points="96.24 11.59 95.95 12.14 98.11 12.14 95.09 17.8 98.7 17.8 102.02 11.59 96.24 11.59"/>
  </g>
  <g>
    <path class="cls-2" d="M51.19,18.37h-.3v-3.66c0-.55-.14-.95-.4-1.22-.26-.27-.68-.4-1.25-.4-.66,0-1.2.26-1.62.79-.25.31-.42.66-.5,1.05v3.44h-.31v-5.45h.31v1.29c.2-.44.5-.78.88-1.03.38-.24.8-.36,1.26-.36.51,0,.92.1,1.24.3.32.2.53.53.63.99.18-.39.47-.71.87-.94s.85-.35,1.35-.35c.65,0,1.14.17,1.45.5.32.33.48.83.48,1.49v3.55h-.3v-3.53c0-.6-.13-1.04-.4-1.32s-.68-.43-1.25-.42c-.73.01-1.31.27-1.74.79-.25.3-.38.59-.4.86v3.62Z"/>
    <path class="cls-2" d="M59.71,18.47c-.49,0-.94-.12-1.34-.35s-.73-.56-.96-.97c-.23-.41-.35-.87-.35-1.37v-.23c0-.5.11-.96.34-1.38s.53-.75.92-.98.82-.35,1.28-.35c.67,0,1.22.22,1.65.65.43.43.64,1,.64,1.71v.29h-4.53v.3c0,.44.1.85.31,1.23.21.38.49.67.85.89s.76.32,1.18.32.75-.06,1.04-.18.54-.31.76-.56l.21.14c-.45.59-1.12.88-2,.88ZM59.6,13.09c-.59,0-1.09.2-1.5.59-.41.39-.65.9-.72,1.51h4.21v-.07c0-.37-.09-.71-.26-1.03-.17-.32-.41-.56-.71-.74s-.64-.26-1.02-.26Z"/>
    <path class="cls-2" d="M63.44,15.59c0-.87.2-1.55.61-2.04.41-.49.96-.73,1.67-.73.45,0,.85.09,1.2.28s.63.46.85.83v-3.29h.3v7.73h-.3v-.87c-.2.31-.49.55-.84.72-.36.17-.76.25-1.22.25-.7,0-1.25-.25-1.66-.75-.41-.5-.61-1.19-.61-2.06v-.07ZM63.75,15.69c0,.77.17,1.38.51,1.83.34.45.82.67,1.44.67.5,0,.92-.1,1.28-.3.35-.2.62-.49.79-.88v-2.55c-.35-.92-1.03-1.37-2.05-1.37-.62,0-1.1.22-1.44.66-.34.44-.52,1.09-.52,1.94Z"/>
    <path class="cls-2" d="M70.32,11.22c0-.08.03-.14.09-.2.06-.06.13-.08.22-.08s.16.03.22.08.09.12.09.2-.03.14-.09.2c-.06.05-.14.08-.22.08s-.16-.03-.22-.08c-.06-.05-.09-.12-.09-.2ZM70.78,18.37h-.3v-5.45h.3v5.45Z"/>
    <path class="cls-2" d="M75.23,18.2c.55,0,1-.13,1.35-.39.36-.26.55-.62.58-1.09h.3c-.03.53-.25.95-.68,1.27-.42.32-.94.48-1.56.48-.76,0-1.36-.25-1.8-.74-.44-.49-.67-1.16-.67-2.01v-.18c0-.83.22-1.48.67-1.98.44-.49,1.04-.74,1.79-.74.64,0,1.17.17,1.59.52.42.35.64.81.66,1.38h-.3c-.03-.49-.22-.88-.57-1.18-.36-.3-.81-.45-1.38-.45-.67,0-1.2.22-1.58.66-.38.44-.57,1.05-.57,1.82v.18c0,.76.19,1.36.58,1.79.39.43.91.65,1.59.65Z"/>
    <path class="cls-2" d="M83.31,18.37c-.07-.23-.11-.56-.11-1-.24.35-.56.62-.98.81-.41.19-.88.29-1.4.29-.56,0-1.01-.14-1.35-.41s-.51-.63-.51-1.07c0-.5.25-.9.75-1.2.5-.3,1.17-.45,2-.46h1.49v-.79c0-.46-.16-.81-.48-1.06-.32-.25-.77-.38-1.36-.38-.55,0-1.01.13-1.38.38-.37.25-.55.57-.55.95h-.3c0-.45.22-.83.65-1.14.43-.31.96-.46,1.59-.46s1.17.15,1.55.44.58.71.59,1.24v2.6c0,.6.05,1,.16,1.22v.05h-.35ZM80.82,18.2c.57,0,1.05-.11,1.46-.34.41-.23.71-.55.92-.96v-1.29h-1.4c-.86,0-1.52.15-1.98.46-.37.25-.56.57-.56.94,0,.33.15.61.44.85.29.23.67.35,1.12.35Z"/>
    <path class="cls-2" d="M86.24,18.37h-.3v-7.73h.3v7.73Z"/>
  </g>
</svg>