<?xml version="1.0" encoding="UTF-8"?>
<svg id="Layer_1" data-name="Layer 1" xmlns="http://www.w3.org/2000/svg" viewBox="0 0 192.01 33.56">
  <defs>
    <style>
      .cls-1 {
        fill: #19488b;
      }

      .cls-2 {
        fill: #0f7dc2;
      }

      .cls-3 {
        fill: #fbeb32;
      }
    </style>
  </defs>
  <g>
    <path d="M26.72.29l-7.46,14.1h5.26l1.23-2.74h7.68l1.27,2.74h5.87L33.11.29h-6.39ZM27.09,8.9l2.54-5.87h.1l2.42,5.87h-5.05Z"/>
    <path d="M9.35,2.72c1.37,0,3.05.42,3.22,1.99h5.52C18.09.54,12.11-.03,9.06,0,4.02.05,0,1.83,0,7.33s4.41,7.45,9.31,7.37c3.26-.04,8.58-.55,8.77-4.81h-5.47c-.39,1.79-1.91,2.06-3.56,2.06-2.69,0-3.54-2.11-3.54-4.49,0-2.74.76-4.74,3.82-4.74Z"/>
    <polygon points="145.35 .29 140.06 .29 140.06 14.39 153.87 14.39 153.87 11.65 145.35 11.65 145.35 .29"/>
    <path d="M77.73.29h-8.89v14.1h5.27v-5.03h3.62c3.08,0,7.61-.51,7.51-4.57-.08-3.99-4.38-4.5-7.51-4.5ZM76.67,6.63h-2.56v-3.6h2.39c1.26.04,3.22.15,3.22,1.81s-1.84,1.75-3.05,1.79Z"/>
    <polygon points="87.65 .29 87.65 14.39 102.08 14.39 102.08 11.65 92.94 11.65 92.94 8.68 101.37 8.68 101.37 5.92 92.94 5.92 92.94 3.03 102.08 3.03 102.08 .29 87.65 .29"/>
    <polygon points="56.87 .29 55.8 3.74 53.92 9.82 53.87 9.82 50.75 .29 42.45 .29 42.45 14.39 47.06 14.39 47.06 2.51 47.12 2.48 51.24 14.39 53.81 14.39 55.95 14.39 60.41 2.55 60.46 2.59 60.46 14.39 65.08 14.39 65.08 .29 56.87 .29"/>
    <polygon points="103.62 .29 103.62 3.03 109.39 3.03 109.39 14.39 114.66 14.39 114.66 3.03 120.58 3.03 120.58 .29 103.62 .29"/>
    <polygon points="122.63 14.39 137.04 14.39 137.04 11.65 127.91 11.65 127.91 8.68 136.34 8.68 136.34 5.92 127.91 5.92 127.91 3.03 137.04 3.03 137.04 .29 122.63 .29 122.63 14.39"/>
    <path d="M184.42.29h-6.4l-7.45,14.1h5.27l1.23-2.74h7.66l1.28,2.74h5.87l-7.46-14.1ZM178.4,8.9l2.53-5.87h.1l2.41,5.87h-5.04Z"/>
    <polygon points="161.33 .29 156.04 .29 156.04 14.39 169.86 14.39 169.86 11.65 161.33 11.65 161.33 .29"/>
  </g>
  <g>
    <polygon class="cls-3" points="184.97 20.39 179.5 30.62 186.02 30.62 192.01 19.41 181.58 19.41 181.05 20.39 184.97 20.39"/>
    <polygon class="cls-1" points="165.75 22.43 159.81 33.56 170.24 33.56 176.18 22.43 165.75 22.43"/>
    <polygon class="cls-2" points="173.66 20.92 173.14 21.9 177.05 21.9 171.59 32.13 178.11 32.13 184.1 20.92 173.66 20.92"/>
  </g>
  <g>
    <path d="M92.37,33.14h-.54v-6.6c0-.99-.25-1.72-.72-2.2-.47-.48-1.23-.72-2.26-.72-1.19,0-2.17.47-2.93,1.42-.45.57-.75,1.2-.9,1.89v6.21h-.55v-9.83h.55v2.33c.37-.8.9-1.42,1.58-1.85.68-.44,1.44-.65,2.28-.65.91,0,1.66.18,2.24.54.58.36.96.96,1.14,1.78.32-.71.85-1.27,1.57-1.69s1.54-.63,2.44-.63c1.18,0,2.05.3,2.62.9.57.6.86,1.5.87,2.7v6.41h-.54v-6.37c0-1.08-.24-1.87-.72-2.39s-1.23-.77-2.26-.76c-1.32.02-2.37.49-3.14,1.42-.44.54-.69,1.06-.73,1.56v6.53Z"/>
    <path d="M107.75,33.32c-.88,0-1.69-.21-2.42-.64s-1.31-1.01-1.73-1.76c-.42-.74-.62-1.57-.62-2.48v-.41c0-.91.2-1.74.6-2.5s.96-1.35,1.66-1.77,1.47-.64,2.31-.64c1.22,0,2.21.39,2.98,1.17.77.78,1.16,1.81,1.16,3.08v.52h-8.17v.53c0,.8.19,1.54.56,2.22.37.68.89,1.21,1.54,1.6s1.37.58,2.13.58,1.35-.11,1.87-.33.97-.56,1.37-1.02l.38.25c-.81,1.06-2.02,1.59-3.62,1.59ZM107.54,23.62c-1.06,0-1.96.36-2.7,1.07-.74.71-1.17,1.62-1.3,2.72h7.6v-.12c0-.67-.16-1.28-.47-1.86-.31-.57-.74-1.02-1.29-1.34s-1.16-.48-1.84-.48Z"/>
    <path d="M114.48,28.13c0-1.57.37-2.79,1.1-3.67.73-.88,1.74-1.32,3.01-1.32.82,0,1.54.17,2.17.5s1.14.83,1.53,1.49v-5.93h.54v13.95h-.54v-1.57c-.37.56-.88.99-1.52,1.29-.64.31-1.38.46-2.2.46-1.26,0-2.26-.45-2.99-1.35-.73-.9-1.1-2.14-1.1-3.71v-.13ZM115.05,28.32c0,1.39.31,2.49.92,3.3.61.81,1.48,1.21,2.6,1.21.9,0,1.67-.18,2.31-.54.64-.36,1.11-.89,1.42-1.59v-4.6c-.62-1.65-1.86-2.48-3.71-2.48-1.11,0-1.98.4-2.6,1.19-.62.79-.93,1.96-.93,3.51Z"/>
    <path d="M126.89,20.25c0-.14.05-.26.16-.36.11-.1.24-.15.39-.15s.29.05.4.15.17.22.17.36-.06.26-.17.35c-.11.1-.24.15-.4.15s-.29-.05-.39-.15c-.11-.1-.16-.22-.16-.35ZM127.72,33.14h-.54v-9.83h.54v9.83Z"/>
    <path d="M135.76,32.83c.99,0,1.8-.24,2.44-.71.64-.47.99-1.13,1.05-1.96h.54c-.05.95-.46,1.72-1.22,2.29-.76.58-1.7.87-2.82.87-1.36,0-2.45-.44-3.25-1.34-.8-.89-1.2-2.1-1.2-3.62v-.33c0-1.49.4-2.68,1.2-3.57.8-.89,1.88-1.34,3.23-1.34,1.15,0,2.11.31,2.86.94.75.62,1.15,1.45,1.2,2.49h-.54c-.05-.88-.39-1.59-1.03-2.13-.64-.54-1.47-.8-2.48-.8-1.22,0-2.17.39-2.86,1.18-.69.79-1.03,1.89-1.03,3.29v.32c0,1.37.35,2.45,1.04,3.24.7.78,1.65,1.18,2.87,1.18Z"/>
    <path d="M150.33,33.14c-.13-.42-.2-1.02-.2-1.8-.43.63-1.02,1.12-1.76,1.46-.75.35-1.59.52-2.53.52-1.01,0-1.82-.25-2.43-.74-.61-.49-.92-1.14-.92-1.93,0-.9.45-1.62,1.35-2.17.9-.54,2.1-.82,3.6-.83h2.69v-1.43c0-.82-.29-1.46-.86-1.92-.57-.45-1.4-.68-2.46-.68-.99,0-1.82.23-2.49.69-.66.46-1,1.03-1,1.71l-.54-.02c0-.8.39-1.48,1.17-2.03.78-.56,1.73-.84,2.86-.84s2.11.26,2.8.79,1.05,1.28,1.07,2.24v4.7c0,1.08.09,1.81.28,2.2v.08h-.62ZM145.84,32.83c1.02,0,1.9-.21,2.63-.62.74-.41,1.29-.99,1.66-1.73v-2.33h-2.52c-1.56,0-2.75.28-3.58.84-.67.45-1.01,1.02-1.01,1.7,0,.6.27,1.11.8,1.53.53.42,1.2.63,2.01.63Z"/>
    <path d="M155.62,33.14h-.54v-13.95h.54v13.95Z"/>
  </g>
</svg>