<svg xmlns="http://www.w3.org/2000/svg" xmlns:xlink="http://www.w3.org/1999/xlink" width="285.135" height="64.952" viewBox="0 0 285.135 64.952">
  <defs>
    <clipPath id="clip-path">
      <rect id="Rettangolo_39" data-name="Rettangolo 39" width="285.135" height="64.952" fill="none"/>
    </clipPath>
  </defs>
  <g id="Logo_Campetella" data-name="Logo Campetella" transform="translate(0 0)">
    <path id="Tracciato_73" data-name="Tracciato 73" d="M29.283.289,27.014,4.445H43.973L20.294,47.933H48.556L74.5.289Z" transform="translate(137.363 1.955)" fill="#fce80c"/>
    <path id="Tracciato_74" data-name="Tracciato 74" d="M15.878,48.765H44.14L70.094,1.114H24.874L22.605,5.277H39.556L15.878,48.765" transform="translate(107.469 7.536)" fill="#0c79bc"/>
    <path id="Tracciato_75" data-name="Tracciato 75" d="M35.226,1.939,9.279,49.583H54.5L80.446,1.939Z" transform="translate(62.804 13.121)" fill="#1e3e81"/>
    <path id="Tracciato_76" data-name="Tracciato 76" d="M28.131,4.408h7.722v16.6H48.313v4.009H28.131Zm23.344,0h7.737v16.6H71.681v2.136l-.994,1.872H51.475Zm21.993,19.18L83.606,4.408h9.346l10.9,20.61H95.274l-1.88-4.009H82.207l-1.795,4.009H73.468Zm9.05-20.967-9.05,16.6H61.007V2.621H49.688v16.6H37.647V2.621h-11.3V26.8H81.57L83.365,22.8H92.26L94.132,26.8h12.686L94.023,2.621Z" transform="translate(178.309 17.739)" fill="#fff"/>
    <g id="Raggruppa_38" data-name="Raggruppa 38" transform="translate(0 0)">
      <g id="Raggruppa_37" data-name="Raggruppa 37" clip-path="url(#clip-path)">
        <path id="Tracciato_77" data-name="Tracciato 77" d="M30,18.9l.085-1.872h-11.3l-.3,1.406c-.2.909-.583,1.6-3.457,1.6-.924,0-3.379,0-3.379-4.778,0-4.312,1.336-5.127,3.8-5.127.653,0,2.8.093,2.929,1.313l.171,1.6H30.01V11.244c0-2.362-1.025-5.547-5.889-7.349a26.182,26.182,0,0,0-8.747-1.328h-.365c-4.4.047-7.893.956-10.386,2.7C1.554,7.4,0,10.7,0,15.067c0,7.869,5.609,12.569,15.009,12.569h.419a25.83,25.83,0,0,0,8.693-1.321c4.669-1.763,5.772-5,5.881-7.419m-3.566,3.977L26.4,22.9a5.883,5.883,0,0,1-.482.412c-2.735,2.136-7.3,2.486-10.519,2.525-.132.008-.264.008-.388.008-7.015,0-13.222-2.89-13.222-10.783,0-8.033,5.873-10.635,13.238-10.713h.388c4.56.008,12.8.963,12.8,6.891H20.151c-.233-2.144-2.408-2.828-4.327-2.905l-.381-.008c-4.475,0-5.586,2.913-5.586,6.922,0,3.488,1.235,6.564,5.166,6.564h.451a5.541,5.541,0,0,0,3.775-1.142c.093-.093.179-.186.264-.287a3.36,3.36,0,0,0,.427-.691,4.475,4.475,0,0,0,.287-.878h7.986a5.742,5.742,0,0,1-1.779,4.055" transform="translate(0 17.374)" fill="#fff"/>
        <path id="Tracciato_78" data-name="Tracciato 78" d="M192.152,0H141.82l-3.488,6.409H107.514l-3.488,6.4H73.2l-4.1,7.551H60.08L57,30.3l-3.247-9.944H38.546V40.754L27.755,20.361H16.266L3.471,44.545H15.279l1.8-4.009H26l1.857,4.009h21V35.782l3.037,8.763h4.032L44.815,64.952H95.147l3.488-6.409h30.818l3.488-6.4h30.825l4.133-7.6h12.43v-7.59h-8.3l.412-.754h6.86V28.6h-2.719l.35-.645h3.395v-6.23ZM177.516,30.383v4.024h-4.1l2.191-4.024Zm-12.329-4.226v4.226h7.862l-2.191,4.024h-5.671v4.343H168.5l-2.191,4.009h-8.833V22.148H177.54l-2.183,4.009Zm13.346,12.593v4.009H168.87l2.183-4.009Zm-24.043-16.6v4.009h-7.4l2.183-4.009Zm-16.36,20.61V42.61l7.706-14.154v14.3Zm-19.522-20.61h8.856v4.009H116.27l2.183-4.009Zm8.856,16.6v4.009H107.235L114.1,30.142v.241h12.321v4.024H114.1v4.343Zm-21.084.886V22.148H115.9Zm23.329-13.478V22.148h17.005l-8.584,15.77V26.157Zm48.825-1.15v1.15h-.621ZM143.156,2.245h45.22l-9.866,18.116H150.249l7.6-13.952H140.888ZM108.851,8.654h45.22l-6.378,11.707h-28.27l4.11-7.551H106.582ZM29,42.758l-1.857-4.009H15.916l-1.795,4.009H6.446l10.9-20.61h9.33l10.9,20.61ZM47.068,25.4V42.758H40.332V22.148H52.451L57,36.085h.078L61.4,22.148h6.72L56.9,42.758H53.166l-6.021-17.4ZM60.057,42.758h-.6l1.95-3.589Zm6.58,0V29.567l4.04-7.419h2.711v20.61ZM93.811,62.707H48.59L58.48,44.545h2.812l3.558-9.423v9.423H75.174V20.361H71.655l2.882-5.306h45.22l-2.882,5.306h-12.29v7.567A7.434,7.434,0,0,0,99.73,21.6a20.051,20.051,0,0,0-7.862-1.243H77.093V44.545H88.365V37.188h3.5c5.2,0,8.724-1.025,10.783-3.131a6.9,6.9,0,0,0,1.934-4.242V42.921Zm.3-27.376c-.777.054-1.53.07-2.237.07h-5.29v7.357h-7.7V22.148H91.869c.287,0,.583.008.878.008,3.123.078,6.766.583,8.708,2.758.093.109.186.21.272.326a5.07,5.07,0,0,1,.451.715,6.112,6.112,0,0,1,.668,2.773c.117,5-4.568,6.316-8.74,6.6M128.124,56.3H99.855l6.4-11.754h22.995v-7.59H115.889V36.2h12.329V28.6H115.889v-.645h20.447V41.212Zm34.306-6.4H134.168l2.905-5.352h10.557V27.951h8.064V44.545h9.648Zm7.046-12.942h-2.494V36.2h2.905Zm4.552-8.359h-7.046v-.645h7.4Z" transform="translate(23.493 -0.001)" fill="#fff"/>
        <path id="Tracciato_79" data-name="Tracciato 79" d="M9.039,3.367,5.326,11.943h7.388L9.179,3.367Zm-.987,6.79L9.07,7.811l.963,2.346Z" transform="translate(36.049 22.789)" fill="#fff"/>
        <path id="Tracciato_80" data-name="Tracciato 80" d="M37.485,3.367l-3.7,8.576h7.365L37.625,3.367Zm-.979,6.79,1.01-2.338.963,2.338Z" transform="translate(228.687 22.789)" fill="#fff"/>
        <path id="Tracciato_81" data-name="Tracciato 81" d="M17.665,3.367h-3.5V8.626h3.744c1.763-.054,4.459-.287,4.459-2.61,0-2.432-2.867-2.587-4.708-2.649M15.956,6.84V5.154h1.678a8.828,8.828,0,0,1,2.455.326c.489.186.489.311.489.536,0,.2,0,.319-.435.489a7.728,7.728,0,0,1-2.261.334Z" transform="translate(95.903 22.789)" fill="#fff"/>
        <path id="Tracciato_82" data-name="Tracciato 82" d="M14.752,2.851l-10.9,20.6h7.683l1.795-4.009H24.556l1.857,4.009h8.576l-10.9-20.6ZM15.3,15.436,19.009,6.86h.14l3.535,8.576Z" transform="translate(26.079 19.296)"/>
        <path id="Tracciato_83" data-name="Tracciato 83" d="M13.887,6.776c2,0,4.459.621,4.708,2.913h8.064c0-6.1-8.732-6.937-13.191-6.891C6.1,2.876.23,5.479.23,13.511S6.67,24.395,13.84,24.286c4.77-.062,12.538-.8,12.818-7.03H18.672c-.575,2.618-2.789,3.006-5.2,3.006C9.537,20.262,8.3,17.178,8.3,13.7c0-4.009,1.111-6.922,5.586-6.922" transform="translate(1.557 18.929)"/>
        <path id="Tracciato_84" data-name="Tracciato 84" d="M34.3,2.851H26.575v20.61H46.757V19.445H34.3Z" transform="translate(179.87 19.298)"/>
        <path id="Tracciato_85" data-name="Tracciato 85" d="M26.167,2.851H13.178v20.61h7.7V16.1h5.29c4.506,0,11.117-.738,10.977-6.673C37.02,3.6,30.75,2.851,26.167,2.851m-1.546,9.276H20.877V6.86h3.5c1.841.062,4.708.218,4.708,2.649,0,2.323-2.7,2.556-4.459,2.618" transform="translate(89.195 19.296)"/>
        <path id="Tracciato_86" data-name="Tracciato 86" d="M16.718,2.851v20.61H37.8V19.445H24.439V15.11H36.768V11.086H24.439V6.86H37.8V2.851Z" transform="translate(113.152 19.298)"/>
        <path id="Tracciato_87" data-name="Tracciato 87" d="M29.284,2.851,27.723,7.9l-2.758,8.887h-.078L20.335,2.851H8.216v20.61h6.735V6.1l.078-.047L21.05,23.461H27.94l6.518-17.3.062.047V23.461h6.751V2.851Z" transform="translate(55.611 19.298)"/>
        <path id="Tracciato_88" data-name="Tracciato 88" d="M19.721,2.851V6.86h8.421v16.6h7.706V6.86H44.51V2.851Z" transform="translate(133.479 19.298)"/>
        <path id="Tracciato_89" data-name="Tracciato 89" d="M23.3,23.461H44.349V19.452H31V15.117H43.331V11.093H31V6.859H44.349V2.851H23.3Z" transform="translate(157.679 19.295)"/>
        <path id="Tracciato_90" data-name="Tracciato 90" d="M52.55,2.851H43.2l-10.884,20.6h7.7l1.795-4.009H53l1.872,4.009h8.576ZM43.756,15.436l3.7-8.576h.14l3.527,8.576Z" transform="translate(218.71 19.296)"/>
        <path id="Tracciato_91" data-name="Tracciato 91" d="M37.324,2.851H29.579v20.61H49.785V19.445H37.324Z" transform="translate(200.205 19.298)"/>
      </g>
    </g>
  </g>
</svg>
