<svg xmlns="http://www.w3.org/2000/svg" xmlns:xlink="http://www.w3.org/1999/xlink" width="190.429" height="44.798" viewBox="0 0 190.429 44.798">
  <defs>
    <clipPath id="clip-path">
      <rect id="Rettangolo_40" data-name="Rettangolo 40" width="190.429" height="44.798" fill="none"/>
    </clipPath>
  </defs>
  <g id="Educamp_logo" data-name="Educamp logo" transform="translate(0 0)">
    <g id="Raggruppa_40" data-name="Raggruppa 40" transform="translate(0 0)" clip-path="url(#clip-path)">
      <path id="Tracciato_92" data-name="Tracciato 92" d="M12,34.712a7.95,7.95,0,0,1-6.131-2.654c-1.6-1.762-2.406-4.455-2.406-8.01v-5.1c0-3.555.792-6.24,2.359-7.986a7.869,7.869,0,0,1,6.131-2.631,6.961,6.961,0,0,1,6.015,2.926L17.941.206h6.131V34.417h-6.03v-2.4A7.136,7.136,0,0,1,12,34.712m1.739-20.9c-2.755,0-4.1,1.762-4.1,5.386v4.649c0,3.624,1.288,5.386,3.95,5.386a3.96,3.96,0,0,0,3.213-1.381,6.2,6.2,0,0,0,1.133-4V19.2a6.3,6.3,0,0,0-1.11-4,3.763,3.763,0,0,0-3.089-1.381" transform="translate(23.434 1.396)" fill="#fff"/>
      <path id="Tracciato_93" data-name="Tracciato 93" d="M25.174,1.308V35.519h-6.03v-2.4a7.13,7.13,0,0,1-6.03,2.693A7.955,7.955,0,0,1,6.974,33.16c-1.6-1.762-2.406-4.455-2.406-8.01V20.044c0-3.547.792-6.24,2.359-7.979a7.869,7.869,0,0,1,6.131-2.631,6.952,6.952,0,0,1,6.015,2.926L19.043,1.308ZM14.7,30.335a3.95,3.95,0,0,0,3.213-1.381,6.2,6.2,0,0,0,1.133-4V20.292a6.271,6.271,0,0,0-1.11-4,3.763,3.763,0,0,0-3.089-1.381c-2.755,0-4.1,1.762-4.1,5.379v4.657c0,3.624,1.3,5.386,3.95,5.386M25.174.043H19.043a1.291,1.291,0,0,0-.893.373,1.224,1.224,0,0,0-.365.9L17.8,9.442a8.7,8.7,0,0,0-4.742-1.273,9.09,9.09,0,0,0-7.07,3.05C4.2,13.206,3.3,16.171,3.3,20.044V25.15c0,3.873.924,6.853,2.74,8.856a9.168,9.168,0,0,0,7.07,3.066,9.313,9.313,0,0,0,4.82-1.2,1.253,1.253,0,0,0,1.211.908h6.03a1.264,1.264,0,0,0,1.265-1.257V1.308A1.265,1.265,0,0,0,25.174.043M14.7,29.07c-.939,0-2.685,0-2.685-4.121V20.292c0-3.617,1.358-4.121,2.833-4.121a2.517,2.517,0,0,1,2.1.916,5.092,5.092,0,0,1,.838,3.205v4.657a4.982,4.982,0,0,1-.854,3.2,2.706,2.706,0,0,1-2.235.924" transform="translate(22.332 0.294)" fill="#1d1d1b"/>
      <path id="Tracciato_94" data-name="Tracciato 94" d="M17.347,28.037c-7.024,0-10.586-3.725-10.586-11.067V1.618a.378.378,0,0,1,.373-.373H13.28a.378.378,0,0,1,.373.373V16.674a8.063,8.063,0,0,0,.768,3.95c.473.823,1.436,1.226,2.926,1.226,1.475,0,2.46-.388,2.934-1.156a8.082,8.082,0,0,0,.761-4.02V1.618a.378.378,0,0,1,.373-.373h6.147a.378.378,0,0,1,.373.373V16.969c0,3.648-.885,6.434-2.631,8.273-1.754,1.855-4.432,2.794-7.955,2.794" transform="translate(45.712 8.421)" fill="#fff"/>
      <path id="Tracciato_95" data-name="Tracciato 95" d="M28.656,2.348a.371.371,0,0,1,.373.365V18.064c0,3.648-.885,6.434-2.631,8.281s-4.432,2.786-7.955,2.786c-7.024,0-10.586-3.718-10.586-11.067V2.713a.371.371,0,0,1,.373-.365h6.147a.371.371,0,0,1,.373.365V17.77a8.043,8.043,0,0,0,.768,3.95c.473.83,1.436,1.226,2.926,1.226,1.475,0,2.46-.388,2.934-1.156a8.082,8.082,0,0,0,.761-4.02V2.713a.371.371,0,0,1,.373-.365Zm0-1.265H22.509a1.63,1.63,0,0,0-1.63,1.63V17.77A6.659,6.659,0,0,1,20.3,21.13c-.217.357-.893.559-1.855.559-.986,0-1.607-.2-1.839-.6a6.8,6.8,0,0,1-.6-3.322V2.713a1.63,1.63,0,0,0-1.63-1.63H8.229A1.63,1.63,0,0,0,6.6,2.713V18.064c0,8.072,4.09,12.333,11.844,12.333,3.888,0,6.869-1.071,8.871-3.19,1.971-2.08,2.973-5.161,2.973-9.143V2.713a1.63,1.63,0,0,0-1.63-1.63" transform="translate(44.617 7.325)" fill="#1d1d1b"/>
      <path id="Tracciato_96" data-name="Tracciato 96" d="M10.99,27.633a10.893,10.893,0,0,1-7.9-2.856c-1.94-1.894-2.926-4.851-2.926-8.8v-3.12c0-3.85.955-6.783,2.833-8.708a10.406,10.406,0,0,1,7.792-2.895A10.313,10.313,0,0,1,18.51,4.179c1.894,1.94,2.856,4.859,2.856,8.677v3.43H6.279l.016.675a5.548,5.548,0,0,0,1.281,4.106A5.124,5.124,0,0,0,11.238,22.3a4.789,4.789,0,0,0,2.864-.768,2.744,2.744,0,0,0,1.118-1.964l.039-.341h5.914l-.008.388A7.164,7.164,0,0,1,18.433,25.4a11.457,11.457,0,0,1-7.443,2.235m-.2-21.1A4.364,4.364,0,0,0,7.451,7.765c-.768.815-1.156,2.212-1.156,4.152v.147l8.91-.016-.016-.629c0-3.244-1.482-4.89-4.4-4.89" transform="translate(1.102 8.475)" fill="#fff"/>
      <path id="Tracciato_97" data-name="Tracciato 97" d="M11.89,2.355a10.343,10.343,0,0,1,7.722,2.926c1.894,1.94,2.856,4.859,2.856,8.677v3.43H7.373l.016.683a5.528,5.528,0,0,0,1.288,4.1A5.1,5.1,0,0,0,12.333,23.4a4.744,4.744,0,0,0,2.872-.768,2.77,2.77,0,0,0,1.118-1.964l.039-.341h5.906v.388A7.164,7.164,0,0,1,19.535,26.5a11.48,11.48,0,0,1-7.451,2.235,10.886,10.886,0,0,1-7.893-2.856c-1.94-1.894-2.926-4.851-2.926-8.8v-3.12c0-3.85.947-6.776,2.825-8.7a10.44,10.44,0,0,1,7.8-2.9m-4.5,10.811,8.91-.016-.016-.629c0-3.244-1.475-4.89-4.393-4.89A4.392,4.392,0,0,0,8.553,8.867a6.033,6.033,0,0,0-1.164,4.152v.147M11.89,1.09a11.626,11.626,0,0,0-8.7,3.283C1.071,6.546,0,9.767,0,13.958v3.12c0,4.3,1.11,7.567,3.314,9.709A12.1,12.1,0,0,0,12.084,30a12.72,12.72,0,0,0,8.25-2.522,8.464,8.464,0,0,0,3.19-6.744l.008-.388a1.236,1.236,0,0,0-.365-.9,1.249,1.249,0,0,0-.9-.373H16.361a1.26,1.26,0,0,0-1.257,1.11l-.039.341a1.49,1.49,0,0,1-.613,1.1,3.658,3.658,0,0,1-2.119.512,3.9,3.9,0,0,1-2.779-.877,3.894,3.894,0,0,1-.885-2.608h13.8a1.264,1.264,0,0,0,1.257-1.265v-3.43c0-4.16-1.079-7.373-3.213-9.562A11.573,11.573,0,0,0,11.89,1.09M8.708,11.9a3.645,3.645,0,0,1,.761-2.165A3.183,3.183,0,0,1,11.89,8.9c1.436,0,2.91.373,3.112,3Z" transform="translate(0 7.373)" fill="#1d1d1b"/>
      <path id="Tracciato_98" data-name="Tracciato 98" d="M10.073,13.73Q10.073.167,22.631.163q5.6,0,8.925,2.957t3.33,8.343V11.8h-6.5V11.51a5.625,5.625,0,0,0-1.513-4.144,5.777,5.777,0,0,0-4.292-1.529,5.274,5.274,0,0,0-4.54,1.925q-1.409,1.921-1.413,6.318v7.35c0,2.755.489,4.765,1.467,6.015a5.456,5.456,0,0,0,4.587,1.878,5.719,5.719,0,0,0,4.245-1.482A5.52,5.52,0,0,0,28.382,23.8v-.4h6.4v.341q0,5.483-3.275,8.413t-8.98,2.934q-12.457,0-12.457-13.567Z" transform="translate(68.106 1.105)"/>
      <path id="Tracciato_99" data-name="Tracciato 99" d="M34.106,10.376V27.35H28.153V25.115A8.429,8.429,0,0,1,25.5,27.047a8.524,8.524,0,0,1-3.446.6A8.421,8.421,0,0,1,15.9,25.511,7.861,7.861,0,0,1,13.717,19.6a6.855,6.855,0,0,1,2.328-5.479,9.635,9.635,0,0,1,6.5-2.01h5.456V10.081q0-4.121-4.121-4.121a4.065,4.065,0,0,0-2.747.869,2.88,2.88,0,0,0-1.024,2.305v.147h-5.7V9.088a7.023,7.023,0,0,1,2.584-5.736,10.645,10.645,0,0,1,6.946-2.1q4.913,0,7.544,2.305t2.623,6.822m-6.1,7.792V16.329H23.543c-2.584,0-3.873,1.048-3.873,3.128q0,3.225,3.772,3.229a4.678,4.678,0,0,0,3.5-1.118,4.785,4.785,0,0,0,1.063-3.4" transform="translate(92.743 8.448)"/>
      <path id="Tracciato_100" data-name="Tracciato 100" d="M27.72,1.544V4.175a7.149,7.149,0,0,1,5.9-2.926,8.2,8.2,0,0,1,6.31,2.631q2.421,2.631,2.429,7.986v5.115q0,5.355-2.429,8.01a7.933,7.933,0,0,1-6.108,2.654,7.234,7.234,0,0,1-5.953-2.631V35.088H21.713V1.544ZM36.2,12.115A6.215,6.215,0,0,0,35.086,7.97a3.8,3.8,0,0,0-3-1.265,3.828,3.828,0,0,0-3.12,1.389,6.145,6.145,0,0,0-1.149,4.02v4.664a6.1,6.1,0,0,0,1.172,4.02,4.006,4.006,0,0,0,3.244,1.389q3.97,0,3.974-5.41Z" transform="translate(146.806 8.448)"/>
      <path id="Tracciato_101" data-name="Tracciato 101" d="M22.8,1.544V3.88a7.951,7.951,0,0,1,2.755-1.94A8.3,8.3,0,0,1,28.9,1.249,7.59,7.59,0,0,1,35.5,4.47a9.546,9.546,0,0,1,7.3-3.221,8.362,8.362,0,0,1,6.426,2.476,9.608,9.608,0,0,1,2.305,6.8V23.6l-6.155,1.956V11.269a4.723,4.723,0,0,0-1.118-3.4,4.256,4.256,0,0,0-5.906.054,4.568,4.568,0,0,0-1.11,3.2V23.6l-6.155,1.956V11.269a4.723,4.723,0,0,0-1.118-3.4,3.847,3.847,0,0,0-2.9-1.164,3.946,3.946,0,0,0-2.98,1.187,4.7,4.7,0,0,0-1.141,3.376V23.6l-6.155,1.956V1.544Z" transform="translate(113.527 8.448)"/>
      <path id="Tracciato_102" data-name="Tracciato 102" d="M22.946,4.129,16.791,6.085V7.878h6.155Z" transform="translate(113.528 27.919)" fill="#153c86"/>
      <path id="Tracciato_103" data-name="Tracciato 103" d="M24.787,4.129,18.633,6.085V7.878h6.155Z" transform="translate(125.979 27.919)" fill="#0079bf"/>
      <path id="Tracciato_104" data-name="Tracciato 104" d="M26.628,4.129,20.474,6.085V7.878h6.155Z" transform="translate(138.427 27.919)" fill="#ffe900"/>
      <path id="Tracciato_105" data-name="Tracciato 105" d="M23.726,1.265q5.611,0,8.933,2.957t3.322,8.336v.349h-6.5v-.295a5.625,5.625,0,0,0-1.513-4.144,5.758,5.758,0,0,0-4.292-1.529,5.235,5.235,0,0,0-4.54,1.925q-1.42,1.921-1.42,6.31v7.35q0,4.144,1.467,6.023a5.462,5.462,0,0,0,4.587,1.87,5.688,5.688,0,0,0,4.245-1.482,5.481,5.481,0,0,0,1.467-4.044v-.4h6.4v.349q0,5.472-3.275,8.413t-8.98,2.934q-12.457,0-12.457-13.567V14.832q0-13.574,12.558-13.567m0-1.265C14.684,0,9.911,5.13,9.911,14.832v7.792c0,9.7,4.742,14.824,13.714,14.824,4.106,0,7.412-1.094,9.826-3.252,2.453-2.2,3.694-5.347,3.694-9.352v-.349a1.264,1.264,0,0,0-1.265-1.257h-6.4a1.264,1.264,0,0,0-1.265,1.257v.4a4.233,4.233,0,0,1-1.1,3.159,4.458,4.458,0,0,1-3.345,1.1,4.242,4.242,0,0,1-3.593-1.389c-.792-1.009-1.2-2.779-1.2-5.239v-7.35c0-3.283.636-4.843,1.172-5.565A4.048,4.048,0,0,1,23.679,8.2a4.536,4.536,0,0,1,3.392,1.156,4.387,4.387,0,0,1,1.149,3.26v.295a1.264,1.264,0,0,0,1.265,1.257h6.5a1.264,1.264,0,0,0,1.265-1.257v-.349c0-3.943-1.265-7.063-3.749-9.275C31.052,1.1,27.762,0,23.726,0" transform="translate(67.01 0.003)" fill="#fff"/>
      <path id="Tracciato_106" data-name="Tracciato 106" d="M25.041,2.351q4.913,0,7.544,2.305t2.631,6.822V28.452H29.255V26.217A8.26,8.26,0,0,1,26.6,28.149a8.658,8.658,0,0,1-3.446.6A8.453,8.453,0,0,1,17,26.613a7.891,7.891,0,0,1-2.181-5.906,6.855,6.855,0,0,1,2.328-5.479,9.649,9.649,0,0,1,6.5-2.01h5.456V11.183q0-4.121-4.113-4.121a4.073,4.073,0,0,0-2.755.869,2.863,2.863,0,0,0-1.017,2.305v.147H15.51V10.19a7.013,7.013,0,0,1,2.584-5.736,10.659,10.659,0,0,1,6.946-2.1m-.5,21.436a4.678,4.678,0,0,0,3.5-1.118,4.785,4.785,0,0,0,1.063-3.4V17.431H24.645c-2.584,0-3.873,1.048-3.873,3.128q0,3.225,3.772,3.229m.5-22.7a11.931,11.931,0,0,0-7.746,2.39,8.262,8.262,0,0,0-3.042,6.713v.194a1.259,1.259,0,0,0,1.257,1.265h5.712a1.259,1.259,0,0,0,1.257-1.265v-.147a1.615,1.615,0,0,1,.574-1.343,2.9,2.9,0,0,1,1.94-.567c2.049,0,2.856.8,2.856,2.856v.768h-4.2a10.9,10.9,0,0,0-7.327,2.321,8.089,8.089,0,0,0-2.771,6.434,9.092,9.092,0,0,0,2.569,6.807,9.647,9.647,0,0,0,7.032,2.5,9.908,9.908,0,0,0,3.95-.706,6.455,6.455,0,0,0,.947-.489,1.253,1.253,0,0,0,1.2.893h5.961a1.262,1.262,0,0,0,1.257-1.257V11.478c0-3.376-1.024-5.992-3.058-7.769-1.979-1.739-4.8-2.623-8.374-2.623m-.5,21.436c-2.313,0-2.507-.97-2.507-1.964,0-.7,0-1.863,2.608-1.863H27.85v.574a3.613,3.613,0,0,1-.722,2.522,3.759,3.759,0,0,1-2.584.73" transform="translate(91.641 7.345)" fill="#fff"/>
      <path id="Tracciato_107" data-name="Tracciato 107" d="M34.722,2.351a8.178,8.178,0,0,1,6.3,2.623q2.433,2.631,2.429,7.994v5.107q0,5.367-2.429,8.017a7.928,7.928,0,0,1-6.1,2.654,7.25,7.25,0,0,1-5.961-2.631V36.19H22.816V2.646h6V5.277a7.142,7.142,0,0,1,5.906-2.926m-1.389,20.94q3.97,0,3.974-5.41V13.217a6.215,6.215,0,0,0-1.118-4.144,3.8,3.8,0,0,0-3-1.265A3.811,3.811,0,0,0,30.057,9.2a6.189,6.189,0,0,0-1.141,4.02v4.664a6.116,6.116,0,0,0,1.164,4.02,4.022,4.022,0,0,0,3.252,1.389m1.389-22.2a8.366,8.366,0,0,0-4.664,1.327,1.259,1.259,0,0,0-1.242-1.032h-6a1.265,1.265,0,0,0-1.265,1.265V36.19a1.265,1.265,0,0,0,1.265,1.265h6.147a1.265,1.265,0,0,0,1.265-1.265V28.848a9.24,9.24,0,0,0,4.7,1.164,9.179,9.179,0,0,0,7.032-3.066c1.832-2,2.763-4.99,2.763-8.871V12.968c0-3.888-.931-6.861-2.763-8.848a9.438,9.438,0,0,0-7.233-3.035m-1.389,20.94a2.743,2.743,0,0,1-2.282-.939,4.925,4.925,0,0,1-.869-3.205V13.217A5.04,5.04,0,0,1,31.035,10,2.945,2.945,0,0,1,35.242,9.9a5.244,5.244,0,0,1,.8,3.314v4.664c0,4.144-1.832,4.144-2.709,4.144" transform="translate(145.711 7.345)" fill="#fff"/>
      <path id="Tracciato_108" data-name="Tracciato 108" d="M43.894,2.351A8.339,8.339,0,0,1,50.32,4.827a9.6,9.6,0,0,1,2.305,6.8V28.452H46.479V12.371a4.723,4.723,0,0,0-1.118-3.4,4.256,4.256,0,0,0-5.906.054,4.524,4.524,0,0,0-1.118,3.2V28.452H32.182V12.371a4.723,4.723,0,0,0-1.118-3.4,3.835,3.835,0,0,0-2.9-1.164A3.928,3.928,0,0,0,25.19,8.995a4.707,4.707,0,0,0-1.149,3.376V28.452H17.894V2.646h6V4.974a8.11,8.11,0,0,1,2.755-1.933A8.368,8.368,0,0,1,30,2.351a7.576,7.576,0,0,1,6.6,3.221,9.546,9.546,0,0,1,7.3-3.221m0-1.265A10.729,10.729,0,0,0,36.7,3.717,8.937,8.937,0,0,0,30,1.086a9.691,9.691,0,0,0-3.85.8,8.851,8.851,0,0,0-1.017.5,1.267,1.267,0,0,0-1.242-1.009h-6a1.265,1.265,0,0,0-1.265,1.265V28.452a1.259,1.259,0,0,0,1.265,1.257h6.147a1.259,1.259,0,0,0,1.265-1.257V12.371a3.44,3.44,0,0,1,.792-2.5,2.657,2.657,0,0,1,2.064-.8,2.564,2.564,0,0,1,1.995.776,3.578,3.578,0,0,1,.761,2.522V28.452a1.259,1.259,0,0,0,1.265,1.257h6.155A1.259,1.259,0,0,0,39.6,28.452V12.223a3.306,3.306,0,0,1,.784-2.344,2.614,2.614,0,0,1,2.072-.807,2.547,2.547,0,0,1,1.987.776,3.542,3.542,0,0,1,.768,2.522V28.452a1.259,1.259,0,0,0,1.265,1.257h6.147a1.259,1.259,0,0,0,1.265-1.257V11.626a10.842,10.842,0,0,0-2.647-7.653,9.574,9.574,0,0,0-7.35-2.887" transform="translate(112.432 7.345)" fill="#fff"/>
    </g>
  </g>
</svg>
