<svg xmlns="http://www.w3.org/2000/svg" width="124.71" height="124.701" viewBox="0 0 124.71 124.701">
  <g id="Raggruppa_348" data-name="Raggruppa 348" transform="translate(11115.271 -564.856)">
    <path id="Tracciato_1022" data-name="Tracciato 1022" d="M176.522,144.162q-10.289,0-20.578-.008c-2.211,0-2.615-.388-2.623-2.654-.023-2.592-.085-5.183.008-7.775.054-1.513-.512-1.924-1.971-1.917-11.344.047-22.688.031-34.024.023-2.832,0-3.042-.209-3.042-3.026-.008-5.455-.023-10.909,0-16.364a14.256,14.256,0,0,1,14.238-14.207c5.719-.023,11.453.186,17.163-.054a14.6,14.6,0,0,1,14.89,12.205c.264,1.529.66,1.9,2.126,1.195a11.553,11.553,0,0,1,5.051-1.024q8.811-.012,17.66,0a12.9,12.9,0,0,1,5.494,1.164c1.094.5,1.435.279,1.668-.923,1.3-6.735,5.6-11.251,11.654-12.376a12.691,12.691,0,0,1,2.1-.186c6.254-.008,12.516-.039,18.777.008a14.266,14.266,0,0,1,13.85,13.936c.039,5.672.016,11.344.016,17.016,0,2.281-.357,2.638-2.63,2.638q-17.074.012-34.179.008c-2.2,0-2.2,0-2.2,2.273-.008,2.592.016,5.183-.031,7.775-.031,1.831-.5,2.266-2.351,2.266q-10.545.012-21.066.008m.078-3.026c3.29,0,6.58.008,9.885,0,2.351,0,2.351,0,2.359-2.281V128.48c0-.861-.023-1.73.031-2.592.031-.908.458-1.614,1.428-1.653,1.063-.047,1.505.7,1.606,1.66.039.427.023.861.023,1.3v10.692c0,3.36,0,3.329,3.36,3.267,1.125-.016,1.684-.295,1.676-1.56-.062-4.694.062-9.4-.054-14.091-.178-7.224-5-11.841-12.229-11.856-5.284-.016-10.584.178-15.868-.047-6.6-.279-12.562,4.454-12.492,12.469.023,3.942-.023,7.891.016,11.833.016,3.414-.636,3.212,3.344,3.251,1.288.016,1.7-.5,1.66-1.73-.047-2.917-.016-5.835-.016-8.752.008-1.622-.016-3.236.054-4.857a1.459,1.459,0,0,1,1.505-1.583c.97,0,1.412.683,1.513,1.583.039.435.023.869.023,1.3v11.67c0,2.351,0,2.359,2.281,2.359,3.305.008,6.6,0,9.893,0M200.4,128.6c.652-.559.419-1.195.419-1.746.023-4.322.016-8.644.016-12.966,0-.978.1-1.932,1.335-1.994,1.311-.062,1.591.9,1.653,1.948.039.535.031,1.079.031,1.622,0,3.887.016,7.775-.016,11.662-.016,1.156.388,1.645,1.591,1.637q10.545-.058,21.066,0c1.211.008,1.6-.427,1.583-1.614-.062-3.67-.031-7.34-.023-11.018,0-.916-.008-1.831.023-2.747.031-.869.419-1.459,1.35-1.5a1.4,1.4,0,0,1,1.536,1.342,12.229,12.229,0,0,1,.1,1.769c.016,3.569.008,7.131.008,10.692,0,3.111,0,3.065,3.073,3.08,1.3.008,1.847-.372,1.831-1.746-.062-4.857.047-9.722-.054-14.58a11.145,11.145,0,0,0-11.134-11.158q-8.985-.151-17.978,0a11.461,11.461,0,0,0-11.266,12.725,2.373,2.373,0,0,0,.621,1.443,15.323,15.323,0,0,1,3.818,11.049c-.023.66-.233,1.4.419,2.095m-47.541-.039c.683-.535.45-1.3.435-1.932a15.348,15.348,0,0,1,3.818-11.2,1.911,1.911,0,0,0,.582-1.125c.528-6.82-3.748-12.523-10.157-12.9-6.611-.38-13.276-.233-19.918-.047a10.861,10.861,0,0,0-10.149,9.521c-.473,5.532-.116,11.111-.147,16.675a1.034,1.034,0,0,0,1.187,1.187,11.308,11.308,0,0,1,1.622.016c1.676.233,2.126-.543,2.079-2.134-.085-4.043-.039-8.1-.016-12.151.008-1.11-.116-2.514,1.505-2.561,1.707-.047,1.5,1.373,1.5,2.483.016,4.159.078,8.318-.023,12.469-.039,1.544.5,1.924,1.955,1.909q10.114-.082,20.252.008c1.521.016,2.087-.435,2.064-2.017-.093-4.213-.047-8.427-.008-12.64,0-1.047.1-2.2,1.513-2.219,1.482-.023,1.482,1.125,1.482,2.188.008,4.268-.016,8.535.016,12.8.008.543-.264,1.195.411,1.668" transform="translate(-11229.552 545.395)" fill="#fff"/>
    <path id="Tracciato_1023" data-name="Tracciato 1023" d="M168.749,88.026q13.932,0,27.871.008A16.246,16.246,0,0,1,213,104.367q.047,15.643-.016,31.278a2.409,2.409,0,0,0,1.49,2.514c5.183,2.685,8.287,8.776,7.356,14.168A14.233,14.233,0,0,1,209.959,164.4a13.6,13.6,0,0,1-9.73-2.157,4.63,4.63,0,0,0-2.724-.776q-6.483.081-12.958.023c-1.179-.016-1.7.241-1.785,1.591-.528,7.868-5.431,13.129-13.253,13.819A13.964,13.964,0,0,1,154.8,165.036a1.178,1.178,0,0,1-.023-.163c-.543-3.367-.543-3.367-4.074-3.367-3.724-.008-7.449,0-11.181-.039a3.492,3.492,0,0,0-2.118.613c-8.388,5.719-18.894.877-21.431-7.736a14.1,14.1,0,0,1,6.851-16.147,2.571,2.571,0,0,0,1.544-2.661q-.058-15.317-.016-30.626c.008-9.808,7.069-16.876,16.845-16.884h27.553m.179,3.026c-9.241,0-18.475-.054-27.708.016-7.845.062-13.439,5.742-13.493,13.563-.031,3.942-.008,7.883-.008,11.833,0,6.153-.008,12.314.008,18.467,0,.745-.287,1.6,1.141,1.56,11.228-.287,18.087,10.459,13.175,20.647-.489,1.016-.4,1.3.745,1.288,3.779-.031,7.557-.039,11.344,0a1.9,1.9,0,0,0,1.963-1.3c2.529-5.354,6.921-8.256,12.71-8.264s10.188,2.886,12.717,8.233a2.016,2.016,0,0,0,2.11,1.335c3.624-.047,7.239-.054,10.855,0,1.342.023,1.7-.1.97-1.544-4.78-9.412,2.188-20.709,12.624-20.422,1.614.047,1.87-.4,1.862-1.816-.047-9.777-.225-19.553.039-29.322A13.771,13.771,0,0,0,195.658,91c-8.908.241-17.823.054-26.731.054m-39.277,70.3a10.9,10.9,0,1,0,.016-21.8,10.9,10.9,0,1,0-.016,21.8m78.3,0A10.875,10.875,0,0,0,218.913,150.5a10.921,10.921,0,1,0-21.842-.054,10.781,10.781,0,0,0,10.878,10.909m-39.207,12.384A10.852,10.852,0,1,0,157.894,162.8a10.771,10.771,0,0,0,10.847,10.933" transform="translate(-11221.732 476.833)" fill="#fff"/>
    <path id="Tracciato_1024" data-name="Tracciato 1024" d="M125.141,112.545a12.684,12.684,0,0,0,.279,3.375,1.708,1.708,0,0,1-.776,1.971,1.793,1.793,0,0,1-2.134.023,1.718,1.718,0,0,1-.8-1.963c.621-2.188.194-4.407.341-6.6a1.8,1.8,0,0,0-1.21-2.025,2.919,2.919,0,0,1-2-2.855,3.131,3.131,0,0,1,2.033-2.871q11.511-5.587,23.022-11.15a5.34,5.34,0,0,1,4.958.116c7.224,3.523,14.494,6.968,21.741,10.444.442.21.877.419,1.3.652a3.038,3.038,0,0,1,1.909,2.933,3.078,3.078,0,0,1-1.971,2.731c-1.35.675-2.685,1.4-4.081,1.971a2.233,2.233,0,0,0-1.544,2.5c.078,1.342,0,2.7.016,4.05a2.99,2.99,0,0,1-1.847,2.964c-5.307,2.53-10.6,5.1-15.922,7.6a4.964,4.964,0,0,1-4.392-.031c-5.214-2.483-10.413-5-15.635-7.464a3.249,3.249,0,0,1-2.056-3.329c.039-1.567.008-3.127-.016-4.694-.008-.566-.155-1.241-.815-1.179-.675.062-.349.784-.388,1.218a16,16,0,0,0-.016,1.614m45.485-8.039c-.481-.31-.683-.481-.916-.6q-11.1-5.307-22.191-10.615a2.572,2.572,0,0,0-2.452.124c-7.1,3.414-14.215,6.789-21.315,10.188-.427.2-1.117.3-1.133.8-.023.636.753.667,1.195.885,5.835,2.817,11.825,5.338,17.466,8.481,3.748,2.087,6.758,1.909,10.444-.109,6.044-3.305,12.391-6.044,18.9-9.156m-7.418,9.645c.008-2.692.008-2.685-2.142-1.653-3.554,1.7-7.2,3.236-10.638,5.144a7.708,7.708,0,0,1-8.2.023c-3.678-2.025-7.565-3.693-11.375-5.486-.411-.194-.931-.823-1.381-.085-.729,1.195.179,3.918,1.467,4.531,4.531,2.173,9.07,4.306,13.579,6.518a3.68,3.68,0,0,0,3.53.031c4.454-2.188,8.923-4.353,13.439-6.425,1.327-.605,2.033-1.342,1.723-2.6" transform="translate(-11198.733 489.457)" fill="#fff"/>
  </g>
</svg>
