<svg xmlns="http://www.w3.org/2000/svg" width="131.437" height="110.553" viewBox="0 0 131.437 110.553">
  <g id="Raggruppa_349" data-name="Raggruppa 349" transform="translate(11537.489 -574.914)">
    <path id="Tracciato_1015" data-name="Tracciato 1015" d="M135.335,93.5a2.555,2.555,0,0,0-1.746-.256c-5.292-.016-10.584,0-15.883-.016-1.738,0-2.723-.722-2.638-1.955.1-1.544,1.21-1.948,2.522-1.948q12.465-.012,24.938,0a5.118,5.118,0,0,1,2.568.815q22.021,12.733,44.065,25.419a3.737,3.737,0,0,1,2.142,3.67q-.081,25.454,0,50.893a3.74,3.74,0,0,1-2.111,3.693q-22.137,12.7-44.212,25.52a3.423,3.423,0,0,1-3.818-.1q-21.567-12.5-43.157-24.954a6.381,6.381,0,0,0-3.391-.892c-10.3.023-20.609.008-30.913.008-.621,0-1.257.008-1.878-.039a1.866,1.866,0,0,1-1.955-1.94,1.892,1.892,0,0,1,1.9-2.01,14.908,14.908,0,0,1,2.041-.085q14.351-.012,28.694-.008c2.39,0,2.5-.109,2.5-2.514.008-5.975-.047-11.957.039-17.932.016-1.614-.45-2.2-2.118-2.173-5.7.085-11.391.039-17.078.031-2.716,0-3.67-.52-3.7-1.986-.031-1.521.962-2.079,3.779-2.079,5.7-.008,11.391-.047,17.078.023,1.583.023,2.056-.52,2.033-2.079-.07-6.083-.023-12.182-.031-18.273-.008-2.064-.194-2.258-2.242-2.258q-14.514-.012-29.027-.008a13.723,13.723,0,0,1-2.041-.1,1.876,1.876,0,0,1-1.823-2.079,1.835,1.835,0,0,1,1.87-1.839c.621-.062,1.249-.054,1.878-.054,10.242,0,20.492-.016,30.742.016a7.333,7.333,0,0,0,3.872-1.024q17.935-10.417,35.918-20.756c.38-.217.745-.458,1.187-.729m5.835,76.677c0-7.573-.023-15.138.016-22.711a2.458,2.458,0,0,0-1.381-2.452q-19.623-11.255-39.192-22.587c-1.544-.892-1.676-.838-1.676.939-.008,15.03.016,30.052-.031,45.081a2.773,2.773,0,0,0,1.56,2.731q19.542,11.208,39.052,22.486c1.6.923,1.645.892,1.645-.947q.012-11.266.008-22.541m3.949-.023c0,7.565.016,15.138-.008,22.711-.008,1.21.147,1.746,1.49.962q19.646-11.383,39.324-22.7a2.532,2.532,0,0,0,1.435-2.452q-.058-22.719-.008-45.423c0-1.288-.24-1.7-1.505-.939-3.228,1.932-6.463,3.841-9.761,5.641a2.955,2.955,0,0,0-1.707,2.995c.062,5.408,0,10.816.039,16.225a3.513,3.513,0,0,1-2.025,3.43c-3.391,1.862-6.719,3.833-10.064,5.781-2.762,1.6-4.074.892-4.081-2.258-.008-4.555,0-9.109,0-13.664,0-2.126-.008-2.142-1.777-1.133-3.259,1.862-6.487,3.794-9.784,5.587a2.8,2.8,0,0,0-1.591,2.871c.054,7.457.023,14.913.023,22.37m39.8-52.3c-.326-.225-.675-.512-1.055-.737q-4.353-2.526-8.721-5.036-15.293-8.822-30.595-17.652a2.126,2.126,0,0,0-2.491-.194c-3.554,2.134-7.162,4.19-10.785,6.231-1.187.667-.838.962.109,1.5,3.321,1.862,6.6,3.794,9.9,5.7q14.863,8.566,29.71,17.14c.706.411,1.342.784,2.2.272,3.678-2.157,7.379-4.275,11.072-6.417.287-.163.636-.287.652-.807m-70.857-7.263c-.442.194-.877.341-1.265.559-3.507,2.01-6.991,4.05-10.514,6.029-1.125.636-1.133,1.04,0,1.668,2.933,1.629,5.835,3.313,8.745,5q15.375,8.881,30.734,17.776c.7.4,1.381.792,2.227.295,3.686-2.142,7.395-4.26,11.088-6.394.8-.458.776-.892-.016-1.335-.349-.194-.683-.419-1.024-.621q-19.367-11.185-38.734-22.362c-.388-.225-.807-.4-1.242-.613M160.374,132.3a9.747,9.747,0,0,0,1.086-.489c1.878-1.055,3.732-2.165,5.633-3.2,1.172-.644.885-1.047-.085-1.567-1.505-.807-2.972-1.676-4.446-2.522q-17.656-10.2-35.289-20.407a1.991,1.991,0,0,0-2.343,0c-1.831,1.141-3.7,2.227-5.618,3.236-1.265.667-.985,1.016.047,1.614q19.658,11.313,39.293,22.673a3.15,3.15,0,0,0,1.723.66m1.831,11.383c0,2.273.016,4.547-.008,6.82-.008,1.016.31,1.218,1.2.691,1.955-1.164,3.934-2.281,5.913-3.406a1.76,1.76,0,0,0,.954-1.668c-.008-4.438-.016-8.877.008-13.307,0-1.094-.341-1.327-1.3-.745-1.847,1.117-3.717,2.2-5.61,3.243a2.064,2.064,0,0,0-1.172,2.064c.047,2.1.016,4.206.016,6.308" transform="translate(-11597.354 485.598)" fill="#fff"/>
    <path id="Tracciato_1016" data-name="Tracciato 1016" d="M76.909,93.238c-4.268,0-8.543-.008-12.811.008-1.358,0-2.623-.178-2.646-1.9-.031-1.684,1.195-2.017,2.568-2.025q13.07,0,26.133.008c1.327,0,2.405.427,2.529,1.94.1,1.234-.885,1.932-2.623,1.971-.4.008-.8,0-1.195,0H76.909" transform="translate(-11586.632 485.594)" fill="#fff"/>
  </g>
</svg>
