<svg xmlns="http://www.w3.org/2000/svg" width="105.96" height="105.96" viewBox="0 0 105.96 105.96">
  <g id="Raggruppa_102" data-name="Raggruppa 102" transform="translate(-605.546 -800.571)">
    <path id="Tracciato_493" data-name="Tracciato 493" d="M181.271,97.033v100.49H80.781V97.033ZM184,94.3H78.042v105.96H184Z" transform="translate(527.504 706.269)" fill="#fff"/>
    <path id="Tracciato_494" data-name="Tracciato 494" d="M81.644,102.465h3.4a.344.344,0,0,0,.341-.341v-.667a.342.342,0,1,0-.683,0v.326H81.986V99.067h.279a.341.341,0,0,0,0-.683h-.621a.344.344,0,0,0-.341.341v3.4a.344.344,0,0,0,.341.341" transform="translate(549.546 733.859)" fill="#fff"/>
    <path id="Tracciato_495" data-name="Tracciato 495" d="M82.7,102.465h3.4a.344.344,0,0,0,.341-.341v-.667a.341.341,0,0,0-.683,0v.326H83.046V99.067h.279a.341.341,0,1,0,0-.683H82.7a.344.344,0,0,0-.341.341v3.4a.344.344,0,0,0,.341.341" transform="translate(556.711 733.859)" fill="#fff"/>
    <path id="Tracciato_496" data-name="Tracciato 496" d="M81.644,103.275h3.4a.344.344,0,0,0,.341-.341v-.667a.341.341,0,0,0-.683,0v.326H81.986V99.877h.279a.341.341,0,0,0,0-.683h-.621a.344.344,0,0,0-.341.341v3.4a.344.344,0,0,0,.341.341" transform="translate(549.546 739.335)" fill="#fff"/>
    <path id="Tracciato_497" data-name="Tracciato 497" d="M82.7,103.275h3.4a.344.344,0,0,0,.341-.341v-.667a.341.341,0,0,0-.683,0v.326H83.046V99.877h.279a.341.341,0,1,0,0-.683H82.7a.344.344,0,0,0-.341.341v3.4a.344.344,0,0,0,.341.341" transform="translate(556.711 739.335)" fill="#fff"/>
    <path id="Tracciato_498" data-name="Tracciato 498" d="M84.4,102.465h3.4a.344.344,0,0,0,.341-.341v-.667a.341.341,0,1,0-.683,0v.326H84.739V99.067h.279a.341.341,0,1,0,0-.683H84.4a.344.344,0,0,0-.341.341v3.4a.344.344,0,0,0,.341.341" transform="translate(568.154 733.859)" fill="#fff"/>
    <path id="Tracciato_499" data-name="Tracciato 499" d="M85.5,102.465h3.4a.344.344,0,0,0,.341-.341v-.667a.341.341,0,0,0-.683,0v.326H85.843V99.067h.287a.341.341,0,1,0,0-.683H85.5a.344.344,0,0,0-.341.341v3.4a.344.344,0,0,0,.341.341" transform="translate(575.616 733.859)" fill="#fff"/>
    <path id="Tracciato_500" data-name="Tracciato 500" d="M84.4,103.275h3.4a.344.344,0,0,0,.341-.341v-.667a.341.341,0,1,0-.683,0v.326H84.739V99.877h.279a.341.341,0,1,0,0-.683H84.4a.344.344,0,0,0-.341.341v3.4a.344.344,0,0,0,.341.341" transform="translate(568.154 739.335)" fill="#fff"/>
    <path id="Tracciato_501" data-name="Tracciato 501" d="M85.5,103.275h3.4a.344.344,0,0,0,.341-.341v-.667a.341.341,0,0,0-.683,0v.326H85.843V99.877h.287a.341.341,0,1,0,0-.683H85.5a.344.344,0,0,0-.341.341v3.4a.344.344,0,0,0,.341.341" transform="translate(575.616 739.335)" fill="#fff"/>
    <path id="Tracciato_502" data-name="Tracciato 502" d="M90.592,101.108a.344.344,0,0,0-.341.341v.326H87.535V99.068h.287a.344.344,0,0,0,.341-.341.339.339,0,0,0-.341-.341h-.628a.339.339,0,0,0-.341.341v3.391a.339.339,0,0,0,.341.341h3.4a.339.339,0,0,0,.341-.341v-.667a.344.344,0,0,0-.341-.341" transform="translate(587.053 733.866)" fill="#fff"/>
    <path id="Tracciato_503" data-name="Tracciato 503" d="M91.652,101.108a.344.344,0,0,0-.341.341v.326H88.595V99.068h.287a.344.344,0,0,0,.341-.341.339.339,0,0,0-.341-.341h-.628a.339.339,0,0,0-.341.341v3.391a.339.339,0,0,0,.341.341h3.4a.34.34,0,0,0,.341-.341v-.667a.344.344,0,0,0-.341-.341" transform="translate(594.218 733.866)" fill="#fff"/>
    <path id="Tracciato_504" data-name="Tracciato 504" d="M90.592,101.917a.344.344,0,0,0-.341.341v.326H87.535V99.877h.287a.344.344,0,0,0,.341-.341.339.339,0,0,0-.341-.341h-.628a.339.339,0,0,0-.341.341v3.391a.339.339,0,0,0,.341.341h3.4a.339.339,0,0,0,.341-.341v-.667a.344.344,0,0,0-.341-.341" transform="translate(587.053 739.335)" fill="#fff"/>
    <path id="Tracciato_505" data-name="Tracciato 505" d="M91.652,101.917a.344.344,0,0,0-.341.341v.326H88.595V99.877h.287a.344.344,0,0,0,.341-.341.339.339,0,0,0-.341-.341h-.628a.339.339,0,0,0-.341.341v3.391a.339.339,0,0,0,.341.341h3.4a.339.339,0,0,0,.341-.341v-.667a.344.344,0,0,0-.341-.341" transform="translate(594.218 739.335)" fill="#fff"/>
    <path id="Tracciato_506" data-name="Tracciato 506" d="M85.043,103.389a.344.344,0,0,0-.341.341v.326H81.986v-2.708h.287a.344.344,0,0,0,.341-.341.339.339,0,0,0-.341-.341h-.628a.339.339,0,0,0-.341.341V104.4a.339.339,0,0,0,.341.341h3.4a.339.339,0,0,0,.341-.341v-.667a.344.344,0,0,0-.341-.341" transform="translate(549.546 749.284)" fill="#fff"/>
    <path id="Tracciato_507" data-name="Tracciato 507" d="M86.1,103.389a.344.344,0,0,0-.341.341v.326H83.046v-2.708h.287a.344.344,0,0,0,.341-.341.339.339,0,0,0-.341-.341H82.7a.339.339,0,0,0-.341.341V104.4a.339.339,0,0,0,.341.341h3.4a.339.339,0,0,0,.341-.341v-.667a.344.344,0,0,0-.341-.341" transform="translate(556.711 749.284)" fill="#fff"/>
    <path id="Tracciato_508" data-name="Tracciato 508" d="M85.043,104.2a.344.344,0,0,0-.341.341v.326H81.986v-2.708h.287a.344.344,0,0,0,.341-.341.339.339,0,0,0-.341-.341h-.628a.339.339,0,0,0-.341.341v3.391a.339.339,0,0,0,.341.341h3.4a.339.339,0,0,0,.341-.341v-.667a.344.344,0,0,0-.341-.341" transform="translate(549.546 754.76)" fill="#fff"/>
    <path id="Tracciato_509" data-name="Tracciato 509" d="M86.1,104.2a.344.344,0,0,0-.341.341v.326H83.046v-2.708h.287a.344.344,0,0,0,.341-.341.339.339,0,0,0-.341-.341H82.7a.339.339,0,0,0-.341.341v3.391a.339.339,0,0,0,.341.341h3.4a.339.339,0,0,0,.341-.341v-.667a.344.344,0,0,0-.341-.341" transform="translate(556.711 754.76)" fill="#fff"/>
    <path id="Tracciato_510" data-name="Tracciato 510" d="M84.4,104.74h3.4a.338.338,0,0,0,.341-.334v-.667a.341.341,0,1,0-.683,0v.326H84.739v-2.716h.279a.341.341,0,1,0,0-.683H84.4a.344.344,0,0,0-.341.341v3.4a.338.338,0,0,0,.341.334" transform="translate(568.154 749.284)" fill="#fff"/>
    <path id="Tracciato_511" data-name="Tracciato 511" d="M85.5,104.74h3.4a.338.338,0,0,0,.341-.334v-.667a.341.341,0,1,0-.683,0v.326H85.843v-2.716h.287a.341.341,0,1,0,0-.683H85.5a.344.344,0,0,0-.341.341v3.4a.338.338,0,0,0,.341.334" transform="translate(575.616 749.284)" fill="#fff"/>
    <path id="Tracciato_512" data-name="Tracciato 512" d="M84.4,105.556h3.4a.344.344,0,0,0,.341-.341v-.667a.341.341,0,1,0-.683,0v.326H84.739v-2.716h.279a.341.341,0,0,0,0-.683H84.4a.344.344,0,0,0-.341.341v3.4a.344.344,0,0,0,.341.341" transform="translate(568.154 754.753)" fill="#fff"/>
    <path id="Tracciato_513" data-name="Tracciato 513" d="M85.5,105.556h3.4a.344.344,0,0,0,.341-.341v-.667a.341.341,0,0,0-.683,0v.326H85.843v-2.716h.287a.341.341,0,0,0,0-.683H85.5a.345.345,0,0,0-.341.341v3.4a.344.344,0,0,0,.341.341" transform="translate(575.616 754.753)" fill="#fff"/>
    <path id="Tracciato_514" data-name="Tracciato 514" d="M90.592,103.389a.344.344,0,0,0-.341.341v.326H87.535v-2.708h.287a.344.344,0,0,0,.341-.341.339.339,0,0,0-.341-.341h-.628a.339.339,0,0,0-.341.341V104.4a.339.339,0,0,0,.341.341h3.4a.339.339,0,0,0,.341-.341v-.667a.344.344,0,0,0-.341-.341" transform="translate(587.053 749.284)" fill="#fff"/>
    <path id="Tracciato_515" data-name="Tracciato 515" d="M91.652,103.389a.344.344,0,0,0-.341.341v.326H88.595v-2.708h.287a.344.344,0,0,0,.341-.341.339.339,0,0,0-.341-.341h-.628a.339.339,0,0,0-.341.341V104.4a.339.339,0,0,0,.341.341h3.4a.339.339,0,0,0,.341-.341v-.667a.344.344,0,0,0-.341-.341" transform="translate(594.218 749.284)" fill="#fff"/>
    <path id="Tracciato_516" data-name="Tracciato 516" d="M90.592,104.2a.344.344,0,0,0-.341.341v.326H87.535v-2.708h.287a.344.344,0,0,0,.341-.341.339.339,0,0,0-.341-.341h-.628a.339.339,0,0,0-.341.341v3.391a.339.339,0,0,0,.341.341h3.4a.339.339,0,0,0,.341-.341v-.667a.344.344,0,0,0-.341-.341" transform="translate(587.053 754.76)" fill="#fff"/>
    <path id="Tracciato_517" data-name="Tracciato 517" d="M91.652,104.2a.344.344,0,0,0-.341.341v.326H88.595v-2.708h.287a.344.344,0,0,0,.341-.341.339.339,0,0,0-.341-.341h-.628a.339.339,0,0,0-.341.341v3.391a.339.339,0,0,0,.341.341h3.4a.339.339,0,0,0,.341-.341v-.667a.344.344,0,0,0-.341-.341" transform="translate(594.218 754.76)" fill="#fff"/>
    <path id="Tracciato_518" data-name="Tracciato 518" d="M81.644,107.028h3.4a.344.344,0,0,0,.341-.341v-.667a.341.341,0,1,0-.683,0v.326H81.986V103.63h.279a.341.341,0,0,0,0-.683h-.621a.344.344,0,0,0-.341.341v3.4a.344.344,0,0,0,.341.341" transform="translate(549.546 764.702)" fill="#fff"/>
    <path id="Tracciato_519" data-name="Tracciato 519" d="M82.7,107.028h3.4a.344.344,0,0,0,.341-.341v-.667a.341.341,0,1,0-.683,0v.326H83.046V103.63h.279a.342.342,0,1,0,0-.683H82.7a.344.344,0,0,0-.341.341v3.4a.344.344,0,0,0,.341.341" transform="translate(556.711 764.702)" fill="#fff"/>
    <path id="Tracciato_520" data-name="Tracciato 520" d="M81.644,107.837h3.4a.344.344,0,0,0,.341-.341v-.667a.341.341,0,0,0-.683,0v.326H81.986v-2.716h.279a.341.341,0,0,0,0-.683h-.621a.344.344,0,0,0-.341.341v3.4a.344.344,0,0,0,.341.341" transform="translate(549.546 770.171)" fill="#fff"/>
    <path id="Tracciato_521" data-name="Tracciato 521" d="M80.2,102.465h3.4a.345.345,0,0,0,.341-.341v-.667a.341.341,0,1,0-.683,0v.326H80.544V99.067h.279a.341.341,0,1,0,0-.683H80.2a.344.344,0,0,0-.341.341v3.4a.344.344,0,0,0,.341.341" transform="translate(539.799 733.859)" fill="#fff"/>
    <path id="Tracciato_522" data-name="Tracciato 522" d="M80.2,103.275h3.4a.345.345,0,0,0,.341-.341v-.667a.341.341,0,0,0-.683,0v.326H80.544V99.877h.279a.341.341,0,1,0,0-.683H80.2a.344.344,0,0,0-.341.341v3.4a.344.344,0,0,0,.341.341" transform="translate(539.799 739.335)" fill="#fff"/>
    <path id="Tracciato_523" data-name="Tracciato 523" d="M83.6,103.389a.344.344,0,0,0-.341.341v.326H80.544v-2.708h.287a.344.344,0,0,0,.341-.341.339.339,0,0,0-.341-.341H80.2a.339.339,0,0,0-.341.341V104.4a.339.339,0,0,0,.341.341h3.4a.34.34,0,0,0,.341-.341v-.667a.345.345,0,0,0-.341-.341" transform="translate(539.799 749.284)" fill="#fff"/>
    <path id="Tracciato_524" data-name="Tracciato 524" d="M83.6,104.2a.344.344,0,0,0-.341.341v.326H80.544v-2.708h.287a.344.344,0,0,0,.341-.341.339.339,0,0,0-.341-.341H80.2a.339.339,0,0,0-.341.341v3.391a.339.339,0,0,0,.341.341h3.4a.34.34,0,0,0,.341-.341v-.667a.344.344,0,0,0-.341-.341" transform="translate(539.799 754.76)" fill="#fff"/>
    <path id="Tracciato_525" data-name="Tracciato 525" d="M83.6,105.67a.344.344,0,0,0-.341.341v.326H80.544V103.63h.287a.344.344,0,0,0,.341-.341.339.339,0,0,0-.341-.341H80.2a.339.339,0,0,0-.341.341v3.391a.339.339,0,0,0,.341.341h3.4a.339.339,0,0,0,.341-.341v-.667a.345.345,0,0,0-.341-.341" transform="translate(539.799 764.702)" fill="#fff"/>
    <path id="Tracciato_526" data-name="Tracciato 526" d="M83.6,106.48a.344.344,0,0,0-.341.341v.326H80.544V104.44h.287a.344.344,0,0,0,.341-.341.339.339,0,0,0-.341-.341H80.2a.339.339,0,0,0-.341.341v3.391a.339.339,0,0,0,.341.341h3.4a.339.339,0,0,0,.341-.341v-.667a.344.344,0,0,0-.341-.341" transform="translate(539.799 770.178)" fill="#fff"/>
    <path id="Tracciato_527" data-name="Tracciato 527" d="M82.7,107.837h3.4a.344.344,0,0,0,.341-.341v-.667a.341.341,0,0,0-.683,0v.326H83.046v-2.716h.279a.341.341,0,1,0,0-.683H82.7a.344.344,0,0,0-.341.341v3.4a.344.344,0,0,0,.341.341" transform="translate(556.711 770.171)" fill="#fff"/>
    <path id="Tracciato_528" data-name="Tracciato 528" d="M87.8,105.67a.344.344,0,0,0-.341.341v.326H84.739V103.63h.287a.344.344,0,0,0,.341-.341.339.339,0,0,0-.341-.341H84.4a.339.339,0,0,0-.341.341v3.391a.339.339,0,0,0,.341.341h3.4a.339.339,0,0,0,.341-.341v-.667a.344.344,0,0,0-.341-.341" transform="translate(568.154 764.702)" fill="#fff"/>
    <path id="Tracciato_529" data-name="Tracciato 529" d="M88.9,105.67a.351.351,0,0,0-.349.341v.326H85.835V103.63h.295a.338.338,0,0,0,.334-.341.333.333,0,0,0-.334-.341h-.636a.333.333,0,0,0-.334.341v3.391a.333.333,0,0,0,.334.341H88.9a.344.344,0,0,0,.341-.341v-.667a.35.35,0,0,0-.341-.341" transform="translate(575.616 764.702)" fill="#fff"/>
    <path id="Tracciato_530" data-name="Tracciato 530" d="M87.8,106.48a.344.344,0,0,0-.341.341v.326H84.739V104.44h.287a.344.344,0,0,0,.341-.341.339.339,0,0,0-.341-.341H84.4a.339.339,0,0,0-.341.341v3.391a.339.339,0,0,0,.341.341h3.4a.339.339,0,0,0,.341-.341v-.667a.344.344,0,0,0-.341-.341" transform="translate(568.154 770.178)" fill="#fff"/>
    <path id="Tracciato_531" data-name="Tracciato 531" d="M88.9,106.48a.351.351,0,0,0-.349.341v.326H85.835V104.44h.295a.338.338,0,0,0,.334-.341.333.333,0,0,0-.334-.341h-.636a.333.333,0,0,0-.334.341v3.391a.333.333,0,0,0,.334.341H88.9a.344.344,0,0,0,.341-.341v-.667a.35.35,0,0,0-.341-.341" transform="translate(575.616 770.178)" fill="#fff"/>
    <path id="Tracciato_532" data-name="Tracciato 532" d="M90.592,105.67a.344.344,0,0,0-.341.341v.326H87.535V103.63h.287a.344.344,0,0,0,.341-.341.339.339,0,0,0-.341-.341h-.628a.339.339,0,0,0-.341.341v3.391a.339.339,0,0,0,.341.341h3.4a.339.339,0,0,0,.341-.341v-.667a.344.344,0,0,0-.341-.341" transform="translate(587.053 764.702)" fill="#fff"/>
    <path id="Tracciato_533" data-name="Tracciato 533" d="M91.652,105.67a.344.344,0,0,0-.341.341v.326H88.595V103.63h.287a.344.344,0,0,0,.341-.341.339.339,0,0,0-.341-.341h-.628a.339.339,0,0,0-.341.341v3.391a.339.339,0,0,0,.341.341h3.4a.339.339,0,0,0,.341-.341v-.667a.345.345,0,0,0-.341-.341" transform="translate(594.218 764.702)" fill="#fff"/>
    <path id="Tracciato_534" data-name="Tracciato 534" d="M90.592,106.48a.344.344,0,0,0-.341.341v.326H87.535V104.44h.287a.344.344,0,0,0,.341-.341.339.339,0,0,0-.341-.341h-.628a.339.339,0,0,0-.341.341v3.391a.339.339,0,0,0,.341.341h3.4a.339.339,0,0,0,.341-.341v-.667a.344.344,0,0,0-.341-.341" transform="translate(587.053 770.178)" fill="#fff"/>
    <path id="Tracciato_535" data-name="Tracciato 535" d="M91.652,106.48a.344.344,0,0,0-.341.341v.326H88.595V104.44h.287a.344.344,0,0,0,.341-.341.339.339,0,0,0-.341-.341h-.628a.339.339,0,0,0-.341.341v3.391a.339.339,0,0,0,.341.341h3.4a.339.339,0,0,0,.341-.341v-.667a.344.344,0,0,0-.341-.341" transform="translate(594.218 770.178)" fill="#fff"/>
    <path id="Tracciato_536" data-name="Tracciato 536" d="M89.769,102.465h3.4a.344.344,0,0,0,.341-.341v-.667a.341.341,0,0,0-.683,0v.326H90.111V99.067H90.4a.341.341,0,1,0,0-.683h-.628a.344.344,0,0,0-.341.341v3.4a.344.344,0,0,0,.341.341" transform="translate(604.465 733.859)" fill="#fff"/>
    <path id="Tracciato_537" data-name="Tracciato 537" d="M89.769,103.275h3.4a.344.344,0,0,0,.341-.341v-.667a.341.341,0,0,0-.683,0v.326H90.111V99.877H90.4a.341.341,0,1,0,0-.683h-.628a.344.344,0,0,0-.341.341v3.4a.344.344,0,0,0,.341.341" transform="translate(604.465 739.335)" fill="#fff"/>
    <path id="Tracciato_538" data-name="Tracciato 538" d="M93.168,103.389a.344.344,0,0,0-.341.341v.326H90.111v-2.708H90.4a.344.344,0,0,0,.341-.341.339.339,0,0,0-.341-.341h-.628a.339.339,0,0,0-.341.341V104.4a.339.339,0,0,0,.341.341h3.4a.339.339,0,0,0,.341-.341v-.667a.344.344,0,0,0-.341-.341" transform="translate(604.465 749.284)" fill="#fff"/>
    <path id="Tracciato_539" data-name="Tracciato 539" d="M93.168,104.2a.344.344,0,0,0-.341.341v.326H90.111v-2.708H90.4a.344.344,0,0,0,.341-.341.339.339,0,0,0-.341-.341h-.628a.339.339,0,0,0-.341.341v3.391a.339.339,0,0,0,.341.341h3.4a.339.339,0,0,0,.341-.341v-.667a.344.344,0,0,0-.341-.341" transform="translate(604.465 754.76)" fill="#fff"/>
    <path id="Tracciato_540" data-name="Tracciato 540" d="M93.168,105.67a.344.344,0,0,0-.341.341v.326H90.111V103.63H90.4a.344.344,0,0,0,.341-.341.339.339,0,0,0-.341-.341h-.628a.339.339,0,0,0-.341.341v3.391a.339.339,0,0,0,.341.341h3.4a.339.339,0,0,0,.341-.341v-.667a.344.344,0,0,0-.341-.341" transform="translate(604.465 764.702)" fill="#fff"/>
    <path id="Tracciato_541" data-name="Tracciato 541" d="M93.168,106.487a.344.344,0,0,0-.341.341v.326H90.111v-2.708H90.4a.345.345,0,0,0,0-.691h-.628a.351.351,0,0,0-.341.349V107.5a.339.339,0,0,0,.341.341h3.4a.339.339,0,0,0,.341-.341v-.667a.344.344,0,0,0-.341-.341" transform="translate(604.465 770.171)" fill="#fff"/>
    <path id="Tracciato_542" data-name="Tracciato 542" d="M166.805,98.589a.684.684,0,0,0-.683-.683h-86.2a.679.679,0,0,0-.683.683l-.016,46.292c-.008.279-.07,4.019,1.723,5.874a3.328,3.328,0,0,0,2.475,1.04h.652v2.568a.346.346,0,0,0,.349.341h3.825a.344.344,0,0,0,.341-.341v-.753a.341.341,0,0,0-.683,0v.411H84.767v-2.227h6.386a.346.346,0,0,0,.372,0h20.182a.373.373,0,0,0,.186.054.4.4,0,0,0,.194-.054h44.6v2.568a.344.344,0,0,0,.341.341h3.833a.344.344,0,0,0,.341-.341v-.753a.341.341,0,0,0-.683,0v.411h-3.15v-2.227h5.253a3.311,3.311,0,0,0,2.467-1.04c1.8-1.854,1.738-5.594,1.73-5.874ZM80.6,115.861l.116.016H91v17.311H80.592Zm11.08.016h19.871v17.3H91.68Zm41.877-.683H112.242V99.264h21.315Zm.683-15.922h20.453V115.2H134.24Zm-.683,16.6v17.311H112.234V115.876Zm-22.005-.683H91.68V99.264h19.871Zm0,35.227H91.68V133.862h19.871Zm.683-16.55h21.315v16.558H112.234Zm22.005,0h20.453v16.55H134.24Zm0-17.994h20.453v17.3H134.24Zm21.136,0H165.44l.008,17.311H155.376Zm10.064-.683H155.376V99.272h10.056ZM91,99.272v15.922H80.717l-.116.023.008-15.945ZM81.935,149.8c-1.179-1.21-1.373-3.942-1.342-4.888V133.87H91v16.55H83.424a1.968,1.968,0,0,1-1.49-.621m82.178,0a1.968,1.968,0,0,1-1.49.621h-7.247V133.87h10.071l.008,11.018v.023c.023.947-.163,3.67-1.342,4.888" transform="translate(535.498 730.629)" fill="#fff"/>
    <path id="Tracciato_543" data-name="Tracciato 543" d="M166.37,98.159a.341.341,0,0,0,0-.683H79.575a.341.341,0,0,0,0,.683Z" transform="translate(535.562 727.723)" fill="#fff"/>
    <path id="Tracciato_544" data-name="Tracciato 544" d="M166.668,96.989H79.873a.683.683,0,0,0,0,1.366h86.795a.683.683,0,1,0,0-1.366" transform="translate(535.264 724.431)" fill="#fff"/>
  </g>
</svg>
