<svg xmlns="http://www.w3.org/2000/svg" width="106.781" height="106.1" viewBox="0 0 106.781 106.1">
  <g id="Raggruppa_101" data-name="Raggruppa 101" transform="translate(-833.761 -800.493)">
    <path id="Tracciato_462" data-name="Tracciato 462" d="M210.815,161.386v36.274H110.193V97.031H210.815v36.957a49.348,49.348,0,0,1,2.739,9.916V94.292h-106.1v106.1h106.1V156.024a15.62,15.62,0,0,1-2.739,5.362" transform="translate(726.307 706.201)" fill="#fff"/>
    <path id="Tracciato_463" data-name="Tracciato 463" d="M180.4,124.723a48.62,48.62,0,0,0-.675-6.611,49.21,49.21,0,0,0-2.739-9.916,35.458,35.458,0,0,0-5.812-9.846.685.685,0,0,0-1.047.885,36.851,36.851,0,0,1,6.859,13.214c.023.085.047.171.078.256a47.969,47.969,0,0,1,1.971,12.05,15.034,15.034,0,0,1-6.269,13.012c-5.579,4.112-13.99,5.144-21.415,2.63-5.92-2.01-12.26-7.069-18.343-14.634a92.314,92.314,0,0,1-13.8-24.092.688.688,0,0,0-.264-.326h4.733a.683.683,0,1,0,0-1.366H113.142a.683.683,0,1,0,0,1.366h5.044a.693.693,0,0,0-.256.815,93.815,93.815,0,0,0,14.013,24.465c6.238,7.767,12.8,12.981,18.971,15.068a27.42,27.42,0,0,0,8.721,1.428,23.615,23.615,0,0,0,13.943-4.252,17.322,17.322,0,0,0,3.406-3.274,15.969,15.969,0,0,0,2.739-5.362,18.439,18.439,0,0,0,.675-5.509" transform="translate(760.137 731.993)" fill="#fff"/>
    <path id="Tracciato_464" data-name="Tracciato 464" d="M187.307,161.158a.691.691,0,0,0-.722.652l-.574,11.422a7.257,7.257,0,0,1-7.2,6.688h-51.18a7.251,7.251,0,0,1-7.2-6.688L115.7,109.42l-.008-.039-.016-.07-.016-.07-.031-.062-.031-.054-.031-.054-.047-.054-.039-.047-.054-.039-.054-.039-.062-.031-.054-.031-.07-.016-.062-.016-.07-.008-.039-.008h-2.638a1.949,1.949,0,0,1-1.948-1.948v-7.9a1.955,1.955,0,0,1,1.948-1.955H194.05a1.957,1.957,0,0,1,1.955,1.955v7.9a1.951,1.951,0,0,1-1.955,1.948h-2.685a.685.685,0,0,0-.683.691.978.978,0,0,0,.031.21l-3.437,45.43a.681.681,0,0,0,.629.737h.054a.685.685,0,0,0,.683-.629l3.414-45.066h1.994a3.325,3.325,0,0,0,3.321-3.321v-7.9a3.325,3.325,0,0,0-3.321-3.321H112.384a3.325,3.325,0,0,0-3.321,3.321v7.9a3.325,3.325,0,0,0,3.321,3.321h2l4.679,63.176a8.616,8.616,0,0,0,8.566,7.953h51.18a8.629,8.629,0,0,0,8.566-7.969l.582-11.437a.687.687,0,0,0-.652-.722" transform="translate(737.183 715.15)" fill="#fff"/>
    <path id="Tracciato_465" data-name="Tracciato 465" d="M110.682,97.364a.341.341,0,0,0,0,.683H177.35a.341.341,0,1,0,0-.683Z" transform="translate(745.82 726.966)" fill="#fff"/>
  </g>
</svg>
