<svg xmlns="http://www.w3.org/2000/svg" width="106.1" height="110.544" viewBox="0 0 106.1 110.544">
  <g id="Raggruppa_104" data-name="Raggruppa 104" transform="translate(-157.293 -794.876)">
    <path id="Tracciato_428" data-name="Tracciato 428" d="M71.956,94.141V96.88H123.64V197.5H23.011V96.88H49.237V94.141H20.272v106.1h106.1V94.141Z" transform="translate(137.021 705.179)" fill="#fff"/>
    <path id="Tracciato_429" data-name="Tracciato 429" d="M49.526,135.383c0-4.539-2.615-23.573-2.8-24.907V105.8h.535a.684.684,0,0,0,.683-.683V94.251a.679.679,0,0,0-.683-.683H25.907a.684.684,0,0,0-.683.683v10.863a.689.689,0,0,0,.683.683h.722v4.679c-.178,1.335-2.793,20.368-2.793,24.907v34.49c-.023.481-.256,6.549,3.577,10.615,2.2,2.336,5.284,3.515,9.171,3.515s6.991-1.179,9.226-3.515c3.9-4.074,3.732-10.172,3.717-10.607ZM46.577,94.934v3.1l-9.955-1.746a.336.336,0,0,0-.4.272.343.343,0,0,0,.279.4l10.071,1.777V101.2L26.6,97.68V94.934Zm-19.98,6.6,9.909,1.746.062.008A.347.347,0,0,0,36.9,103a.343.343,0,0,0-.279-.4L26.6,100.838v-2.46l19.98,3.515v2.53H26.6Zm18.219,78c-1.963,2.056-4.733,3.1-8.233,3.1s-6.238-1.04-8.17-3.08c-3.492-3.7-3.212-9.528-3.212-9.621V135.383c0-4.508,2.762-24.566,2.793-24.767l.008-.093v-4.671H45.359v4.671l.008.093c.023.2,2.786,20.259,2.786,24.767v34.536c.008.062.225,5.9-3.336,9.622" transform="translate(161.036 701.308)" fill="#fff"/>
    <path id="Tracciato_430" data-name="Tracciato 430" d="M46.808,96.23H29.838a2.065,2.065,0,0,0-2.118,2.01V107.2a2.066,2.066,0,0,0,2.056,2.01.677.677,0,0,1,.2.45v39.122c0,3.957,3.833,7.177,8.551,7.177s8.551-3.22,8.551-7.177v-4.539l-.109-32.884v-1.7a.672.672,0,0,1,.241-.481,2.054,2.054,0,0,0,1.723-1.979V98.24a2.072,2.072,0,0,0-2.126-2.01M29.838,97.6H46.808a.7.7,0,0,1,.753.644V101.2l-9.233-1.319a.337.337,0,0,0-.388.287.342.342,0,0,0,.287.388l9.334,1.335v1.676l-18.475-2.638V98.24a.7.7,0,0,1,.753-.644m-.753,9.606V104l9.14,1.3.054.008a.341.341,0,0,0,.334-.295.337.337,0,0,0-.287-.388l-9.241-1.319v-1.684l18.475,2.646V107.2a.7.7,0,0,1-.753.644H29.838a.7.7,0,0,1-.753-.644m16.628,41.582c0,3.2-3.22,5.812-7.185,5.812s-7.185-2.607-7.185-5.812V109.661a1.744,1.744,0,0,0-.054-.45h14.37a1.744,1.744,0,0,0-.054.45v1.707l.109,32.876Z" transform="translate(187.366 719.301)" fill="#fff"/>
  </g>
</svg>
