<svg xmlns="http://www.w3.org/2000/svg" width="117.225" height="118.59" viewBox="0 0 117.225 118.59">
  <g id="Raggruppa_105" data-name="Raggruppa 105" transform="translate(-377.153 -1018.855)">
    <path id="Tracciato_438" data-name="Tracciato 438" d="M89.591,126.783l1.327-2.739H56.2c.38.869.791,1.777,1.218,2.739Z" transform="translate(379.835 907.302)" fill="#fff"/>
    <path id="Tracciato_439" data-name="Tracciato 439" d="M151.968,143.566V227.4H51.346V126.783H98.057c-.2-.993-.365-1.893-.481-2.692l-.008-.047H48.607v106.1h106.1V141.929a7.4,7.4,0,0,1-2.739,1.637" transform="translate(328.546 907.302)" fill="#fff"/>
    <path id="Tracciato_440" data-name="Tracciato 440" d="M158.443,130.06a.688.688,0,0,0-.916.318l-9.621,19.871a5.716,5.716,0,0,1-3.7,3,7.5,7.5,0,0,1-5.292-.528l-2.429-1.179a7.508,7.508,0,0,1-3.7-3.818,5.746,5.746,0,0,1,.062-4.772l9.443-19.538a.682.682,0,1,0-1.226-.6l-5.858,12.1-1.327,2.739-2.266,4.694a7.084,7.084,0,0,0-.093,5.889,8.87,8.87,0,0,0,4.368,4.531l.729.357-8.357,17.738c-2.111-.5-4.617,1.009-5.85,3.655l-2.126,4.524-1.513-3.212-.023-.031c-5.47-12.252-10.289-23.029-14.067-31.487-1.079-2.413-2.072-4.64-2.972-6.657-.435-.962-.838-1.87-1.226-2.739-2.421-5.424-3.98-8.908-4.384-9.831-.217-.5-.877-2.017-2.188-2.188-1.265-.171-2.273,1.055-2.607,1.459-1.2,1.466-1.482,5.509-.729,10.56v.047c.124.807.279,1.707.481,2.692a71.944,71.944,0,0,0,3.22,10.925H52.685a3.047,3.047,0,0,0-3.042,3.042v6.355a.69.69,0,0,0,.691.683h3.08l5.1,58.086a6.617,6.617,0,0,0,6.626,6.068H87.873a6.623,6.623,0,0,0,6.626-6.068l4.981-56.7a146.846,146.846,0,0,0,9.164,15.022c.954,1.381,1.94,2.762,3,4.205l4.275,9.055-12.826,27.3a6.628,6.628,0,0,0-.4,4.989,3.738,3.738,0,0,0,1.924,2.2,3.5,3.5,0,0,0,1.505.342c1.94,0,3.949-1.513,5-3.756l9.707-20.671,10.459,22.168a3.952,3.952,0,1,0,7.146-3.375l-13.253-28.081,5.245-11.158c1.265-2.7.838-5.548-.931-6.851l8.349-17.722.466.233a9.162,9.162,0,0,0,3.973.923,8.437,8.437,0,0,0,2.289-.31c.132-.039.264-.078.388-.124a7.272,7.272,0,0,0,2.739-1.637,6.676,6.676,0,0,0,1.435-1.963l9.621-19.871a.688.688,0,0,0-.318-.916m-60.15,27.863-5.16,58.706a5.254,5.254,0,0,1-5.261,4.818H65.138a5.254,5.254,0,0,1-5.261-4.818l-.085-.923H78.965a.341.341,0,1,0,0-.683H59.738l-5.02-57.1-.008-.039-.008-.07-.023-.062-.023-.062-.031-.062-.039-.054-.039-.047-.047-.047-.054-.047-.054-.031-.054-.031-.062-.031-.062-.016-.062-.016-.078-.008-.039-.008H51.016V151.63a1.677,1.677,0,0,1,1.668-1.676H94.8c.768,1.932,1.653,3.981,2.685,6.145.272.559.551,1.125.83,1.684l-.023.14m.435-2.413q-1.618-3.387-2.809-6.463l-.023-.062c-5.245-13.447-4.842-22.16-3.53-23.751.7-.861,1.133-1,1.366-.97.248.031.644.295,1.117,1.381.605,1.381,3.779,8.481,8.582,19.235,3.755,8.4,8.527,19.088,13.951,31.239l-4.718,2.227c-1.024-1.389-1.971-2.716-2.894-4.05A138.753,138.753,0,0,1,98.728,155.51m11.166,63.323c-.823,1.746-2.374,2.964-3.771,2.964a2.251,2.251,0,0,1-.923-.2,2.449,2.449,0,0,1-1.218-1.435,5.254,5.254,0,0,1,.357-3.934l12.337-26.288,3.4,7.2Zm27.313-.714a2.586,2.586,0,0,1-4.679,2.2L113,178.943l4.671-2.2Zm-8.015-40.4-4.756,10.134-3.391-7.193,2.6-5.548c1.04-2.227,3.119-3.468,4.648-2.793l.039.023.031.016c1.505.737,1.878,3.135.83,5.362" transform="translate(335.549 896.421)" fill="#fff"/>
    <path id="Tracciato_441" data-name="Tracciato 441" d="M62.073,138.66a.284.284,0,0,0,.14.031.339.339,0,0,0,.31-.186L69.7,123.677a.34.34,0,1,0-.613-.295l-7.17,14.82a.327.327,0,0,0,.155.458" transform="translate(418.239 901.516)" fill="#fff"/>
    <path id="Tracciato_442" data-name="Tracciato 442" d="M61.42,138.617a.337.337,0,0,0,.147.031.347.347,0,0,0,.31-.186l7.332-15.146a.344.344,0,0,0-.621-.295l-7.325,15.138a.339.339,0,0,0,.155.458" transform="translate(413.856 899.092)" fill="#fff"/>
    <path id="Tracciato_443" data-name="Tracciato 443" d="M87.137,126.972H51.017a.341.341,0,1,0,0,.683H87.137a.341.341,0,1,0,0-.683" transform="translate(342.531 927.093)" fill="#fff"/>
  </g>
</svg>
